<?xml version="1.0" encoding="utf-8"?>
<!-- Generator: Adobe Illustrator 19.2.0, SVG Export Plug-In . SVG Version: 6.00 Build 0)  -->
<svg version="1.1"
	 id="svg4242" xmlns:cc="http://creativecommons.org/ns#" xmlns:dc="http://purl.org/dc/elements/1.1/" xmlns:rdf="http://www.w3.org/1999/02/22-rdf-syntax-ns#"
	 xmlns="http://www.w3.org/2000/svg" xmlns:xlink="http://www.w3.org/1999/xlink" x="0px" y="0px" viewBox="0 0 200 199.7"
	 style="enable-background:new 0 0 200 199.7;" xml:space="preserve">
<g>
	<path d="M9.8,119.9c-0.8,0-1.5-0.3-2-0.9v0.8H6.3v-10.2l1.5-0.8v3.8c0.5-0.6,1.3-0.9,2.1-0.9c1.7,0,3,1.2,3,4.3
		C12.9,118.7,11.5,119.9,9.8,119.9z M9.6,113.1c-0.7,0.1-1.4,0.4-1.8,1v3.3c0.4,0.6,1.1,1,1.8,1c1.1,0,1.7-0.8,1.7-2.5
		C11.4,114,10.8,113.1,9.6,113.1z"/>
	<path d="M17.1,122.6h-1.6l1.1-2.9l-2.9-7.8h1.7l1.3,3.9c0.2,0.7,0.6,1.9,0.7,2.3c0.1-0.5,0.5-1.6,0.7-2.3l1.3-3.9h1.6L17.1,122.6z"
		/>
	<path d="M32.3,115.5l2.2,4.3h-1.8l-2.1-4.2h-2.4v4.2h-1.6v-10.6h4.6c1.8,0,3.4,1,3.4,3.2C34.8,113.8,33.8,115.2,32.3,115.5z
		 M31.3,110.7h-3.1v3.4h3.1c0.9,0.1,1.7-0.5,1.8-1.4c0-0.1,0-0.2,0-0.3c0.1-0.9-0.6-1.7-1.5-1.7C31.5,110.7,31.4,110.7,31.3,110.7z"
		/>
	<path d="M42.7,116.4h-5.2c0.2,1.5,1,2.1,2,2.1c0.6,0,1.2-0.2,1.7-0.6l0.9,1c-0.7,0.7-1.7,1.1-2.7,1.1c-1.9,0-3.4-1.5-3.4-4.1
		c0-2.6,1.4-4.1,3.5-4.1c2.2,0,3.3,1.8,3.3,4C42.7,115.9,42.7,116.1,42.7,116.4z M39.3,113.1c-1,0-1.7,0.7-1.8,2h3.7
		C41.1,114,40.6,113.1,39.3,113.1z"/>
	<path d="M49.2,119.8v-0.8c-0.6,0.6-1.3,0.9-2.1,0.9c-1.7,0-3-1.2-3-4.3c0-2.7,1.5-4,3.1-4c0.8,0,1.5,0.3,2,0.9v-3l1.5-0.8v11
		L49.2,119.8L49.2,119.8z M49.2,114.2c-0.4-0.6-1.1-1-1.9-1c-1.1,0-1.7,0.8-1.7,2.5c0,2,0.6,2.9,1.8,2.9c0.7-0.1,1.4-0.4,1.8-1
		L49.2,114.2L49.2,114.2z"/>
	<path d="M63.3,119.8V115h-4.9v4.8h-1.6v-10.6h1.6v4.3h4.9v-4.3h1.6v10.6H63.3z"/>
	<path d="M71.8,119.8V119c-0.6,0.6-1.4,0.9-2.2,0.9c-1.4,0.1-2.7-1-2.7-2.4c0-0.1,0-0.2,0-0.3c0-1.8,1.4-2.6,3.2-2.6
		c0.6,0,1.2,0.1,1.8,0.3v-0.6c0-0.9-0.5-1.3-1.5-1.3c-0.7,0-1.4,0.1-2.1,0.5l-0.6-1.2c0.8-0.5,1.8-0.7,2.7-0.7c1.8,0,3,0.9,3,2.7
		v5.5H71.8L71.8,119.8z M71.8,116.4c-0.6-0.3-1.2-0.4-1.8-0.3c-1,0-1.6,0.5-1.6,1.2s0.5,1.3,1.5,1.3c0.8,0,1.5-0.4,1.9-1L71.8,116.4
		L71.8,116.4z"/>
	<path d="M79.1,119.6c-0.5,0.2-1,0.4-1.5,0.4c-1.1,0-1.8-0.7-1.8-2.1v-4.6h-1.1v-1.4h1.1v-2.3l1.5-0.8v3.1h1.9v1.4h-1.9v4.3
		c0,0.7,0.2,0.9,0.8,0.9c0.4,0,0.8-0.1,1.1-0.3L79.1,119.6z"/>
	<path d="M83.7,111.2c-0.1,0.2-0.2,0.3-0.3,0.4c-0.1,0.1-0.3,0.2-0.4,0.3c-0.3,0.1-0.7,0.1-1,0c-0.2-0.1-0.3-0.1-0.4-0.3
		c-0.1-0.1-0.2-0.3-0.3-0.4c-0.1-0.3-0.1-0.7,0-1.1c0.1-0.2,0.2-0.3,0.3-0.4c0.1-0.1,0.3-0.2,0.4-0.3c0.3-0.1,0.7-0.1,1,0
		c0.2,0.1,0.3,0.2,0.4,0.3c0.1,0.1,0.2,0.3,0.3,0.4C83.8,110.5,83.8,110.9,83.7,111.2z M83.5,110.3c-0.1-0.3-0.3-0.5-0.6-0.6
		c-0.3-0.1-0.6-0.1-0.9,0c-0.1,0.1-0.3,0.1-0.4,0.2c-0.1,0.1-0.2,0.2-0.2,0.4c-0.1,0.3-0.1,0.6,0,0.9c0.1,0.1,0.1,0.3,0.2,0.4
		c0.1,0.1,0.2,0.2,0.4,0.2c0.3,0.1,0.6,0.1,0.9,0c0.3-0.1,0.5-0.3,0.6-0.6C83.6,110.9,83.6,110.6,83.5,110.3L83.5,110.3z M83,110.7
		c-0.1,0.1-0.1,0.1-0.2,0.1l0.3,0.6h-0.2l-0.3-0.6h-0.3v0.6H82V110h0.6c0.1,0,0.2,0,0.3,0.1c0.1,0.1,0.1,0.2,0.1,0.3
		C83.1,110.5,83,110.6,83,110.7L83,110.7z M82.8,110.2c-0.1,0-0.1-0.1-0.2-0.1h-0.4v0.5h0.4c0.1,0,0.3,0,0.3-0.2c0,0,0,0,0-0.1
		C82.9,110.3,82.8,110.3,82.8,110.2L82.8,110.2z"/>
	<path d="M55.6,98.8c-0.4,0-0.8-0.1-1.1-0.5L41.7,82.4v16.2h-2.9v-20c0-0.8,0.7-1.4,1.5-1.4c0.4,0,0.9,0.2,1.2,0.5l12.8,15.9V77.4
		h2.9v19.9C57.1,98.2,56.5,98.8,55.6,98.8C55.7,98.8,55.6,98.8,55.6,98.8"/>
	<path d="M79.7,99c-3,0-6-0.6-8.8-1.6l0.7-2.3c2.6,0.8,5.3,1.3,8.1,1.4c3.7,0,5.6-1.2,5.6-3c0-1.6-1.5-2.4-6.6-4.7
		c-5.1-2.3-7.1-3.8-7.1-6.6c0-3.6,2.9-5.1,8.4-5.1c2.6,0,5.3,0.4,7.8,1l-0.5,2.4c-2.4-0.5-4.8-0.8-7.3-0.9c-3.9,0-5.5,0.7-5.5,2.4
		c0,1.8,1.2,2.4,6.6,4.8c5.7,2.5,7.2,3.8,7.2,6.4C88.3,97.1,84.5,99,79.7,99"/>
	<rect x="102.1" y="77.4" width="3" height="21.2"/>
	<path d="M130.7,89h-7.5v7.2h7.5c2.5,0,4.1-1.5,4.1-3.7C134.8,90.5,133.2,89,130.7,89 M129.2,79.9h-6v6.8h6c2.4,0,4.2-1.5,4.2-3.5
		C133.4,81.1,131.9,79.9,129.2,79.9 M130.7,98.6h-9c-0.8,0-1.5-0.6-1.5-1.4c0,0,0,0,0,0V78.9c0-0.8,0.7-1.4,1.5-1.4h7.5
		c4.6,0,7.3,2.1,7.3,5.5c-0.1,1.9-1.2,3.6-2.8,4.5c2.5,0.7,4.3,2.7,4.3,5.2C137.9,95.9,134.9,98.6,130.7,98.6"/>
	<path d="M152.3,98.6c-0.8,0-1.5-0.6-1.5-1.4V77.4h3V96h12v2.6L152.3,98.6L152.3,98.6z"/>
	<path d="M186.3,99c-6.2,0-9.9-2.2-9.9-6.5c0-2.2,1.5-4.2,3.6-4.9c-1.9-1.1-2.9-2.8-2.9-4.5c0-3.9,3.2-5.8,9.2-5.8
		c2.4,0,4.9,0.3,7.2,0.7l-0.3,2.4c-2.4-0.4-4.7-0.6-7.1-0.6c-3.9,0-6,1-6,3.5c0,1.9,1.9,3.5,4.5,3.5h5.2c0.7,0,1.3,0.5,1.3,1.1
		c0,0.7-0.5,1.3-1.1,1.3c-0.1,0-0.1,0-0.2,0h-5.6c-2.9,0-4.8,1.4-4.8,3.5c0,3.1,3,4,6.8,4c2.4,0,4.7-0.3,7.1-0.8l0.4,2.3
		C191.3,98.7,188.8,99,186.3,99"/>
	<path d="M16.4,81.4l5.3,12.5l-8-6L16.4,81.4z M25.8,96.8l-8.1-18.7c-0.2-0.5-0.7-0.9-1.3-0.8c-0.6,0-1.1,0.3-1.3,0.8L6.2,98.6h3
		l3.5-8.5l10.5,8.2c0.3,0.3,0.7,0.5,1.1,0.5c0.8,0,1.5-0.6,1.5-1.4c0,0,0,0,0,0C25.9,97.2,25.9,97,25.8,96.8"/>
</g>
</svg>
