<?xml version="1.0" encoding="utf-8"?>
<!-- Generator: Adobe Illustrator 19.2.0, SVG Export Plug-In . SVG Version: 6.00 Build 0)  -->
<svg version="1.1" id="Layer_1" xmlns="http://www.w3.org/2000/svg" xmlns:xlink="http://www.w3.org/1999/xlink" x="0px" y="0px"
	 viewBox="0 0 448 448" style="enable-background:new 0 0 448 448;" xml:space="preserve">
<style type="text/css">
	.st0{opacity:0.3;fill:none;stroke:#449FDB;enable-background:new    ;}
	.st1{fill:none;stroke:#449FDB;}
	.st2{display:none;}
	.st3{display:inline;}
</style>
<g id="Grid_1_">
	<g id="icomoon-ignore_1_">
		<line class="st0" x1="16" y1="0" x2="16" y2="448"/>
		<line class="st1" x1="32" y1="0" x2="32" y2="448"/>
		<line class="st0" x1="48" y1="0" x2="48" y2="448"/>
		<line class="st1" x1="64" y1="0" x2="64" y2="448"/>
		<line class="st0" x1="80" y1="0" x2="80" y2="448"/>
		<line class="st1" x1="96" y1="0" x2="96" y2="448"/>
		<line class="st0" x1="112" y1="0" x2="112" y2="448"/>
		<line class="st1" x1="128" y1="0" x2="128" y2="448"/>
		<line class="st0" x1="144" y1="0" x2="144" y2="448"/>
		<line class="st1" x1="160" y1="0" x2="160" y2="448"/>
		<line class="st0" x1="176" y1="0" x2="176" y2="448"/>
		<line class="st1" x1="192" y1="0" x2="192" y2="448"/>
		<line class="st0" x1="208" y1="0" x2="208" y2="448"/>
		<line class="st1" x1="224" y1="0" x2="224" y2="448"/>
		<line class="st0" x1="240" y1="0" x2="240" y2="448"/>
		<line class="st1" x1="256" y1="0" x2="256" y2="448"/>
		<line class="st0" x1="272" y1="0" x2="272" y2="448"/>
		<line class="st1" x1="288" y1="0" x2="288" y2="448"/>
		<line class="st0" x1="304" y1="0" x2="304" y2="448"/>
		<line class="st1" x1="320" y1="0" x2="320" y2="448"/>
		<line class="st0" x1="336" y1="0" x2="336" y2="448"/>
		<line class="st1" x1="352" y1="0" x2="352" y2="448"/>
		<line class="st0" x1="368" y1="0" x2="368" y2="448"/>
		<line class="st1" x1="384" y1="0" x2="384" y2="448"/>
		<line class="st0" x1="400" y1="0" x2="400" y2="448"/>
		<line class="st1" x1="416" y1="0" x2="416" y2="448"/>
		<line class="st0" x1="432" y1="0" x2="432" y2="448"/>
		<line class="st0" x1="0" y1="16" x2="448" y2="16"/>
		<line class="st1" x1="0" y1="32" x2="448" y2="32"/>
		<line class="st0" x1="0" y1="48" x2="448" y2="48"/>
		<line class="st1" x1="0" y1="64" x2="448" y2="64"/>
		<line class="st0" x1="0" y1="80" x2="448" y2="80"/>
		<line class="st1" x1="0" y1="96" x2="448" y2="96"/>
		<line class="st0" x1="0" y1="112" x2="448" y2="112"/>
		<line class="st1" x1="0" y1="128" x2="448" y2="128"/>
		<line class="st0" x1="0" y1="144" x2="448" y2="144"/>
		<line class="st1" x1="0" y1="160" x2="448" y2="160"/>
		<line class="st0" x1="0" y1="176" x2="448" y2="176"/>
		<line class="st1" x1="0" y1="192" x2="448" y2="192"/>
		<line class="st0" x1="0" y1="208" x2="448" y2="208"/>
		<line class="st1" x1="0" y1="224" x2="448" y2="224"/>
		<line class="st0" x1="0" y1="240" x2="448" y2="240"/>
		<line class="st1" x1="0" y1="256" x2="448" y2="256"/>
		<line class="st0" x1="0" y1="272" x2="448" y2="272"/>
		<line class="st1" x1="0" y1="288" x2="448" y2="288"/>
		<line class="st0" x1="0" y1="304" x2="448" y2="304"/>
		<line class="st1" x1="0" y1="320" x2="448" y2="320"/>
		<line class="st0" x1="0" y1="336" x2="448" y2="336"/>
		<line class="st1" x1="0" y1="352" x2="448" y2="352"/>
		<line class="st0" x1="0" y1="368" x2="448" y2="368"/>
		<line class="st1" x1="0" y1="384" x2="448" y2="384"/>
		<line class="st0" x1="0" y1="400" x2="448" y2="400"/>
		<line class="st1" x1="0" y1="416" x2="448" y2="416"/>
		<line class="st0" x1="0" y1="432" x2="448" y2="432"/>
	</g>
</g>
<g id="Layer_2" class="st2">
	<g id="Grid" class="st3">
		<g id="icomoon-ignore">
			<line class="st0" x1="16" y1="0" x2="16" y2="448"/>
			<line class="st1" x1="32" y1="0" x2="32" y2="448"/>
			<line class="st0" x1="48" y1="0" x2="48" y2="448"/>
			<line class="st1" x1="64" y1="0" x2="64" y2="448"/>
			<line class="st0" x1="80" y1="0" x2="80" y2="448"/>
			<line class="st1" x1="96" y1="0" x2="96" y2="448"/>
			<line class="st0" x1="112" y1="0" x2="112" y2="448"/>
			<line class="st1" x1="128" y1="0" x2="128" y2="448"/>
			<line class="st0" x1="144" y1="0" x2="144" y2="448"/>
			<line class="st1" x1="160" y1="0" x2="160" y2="448"/>
			<line class="st0" x1="176" y1="0" x2="176" y2="448"/>
			<line class="st1" x1="192" y1="0" x2="192" y2="448"/>
			<line class="st0" x1="208" y1="0" x2="208" y2="448"/>
			<line class="st1" x1="224" y1="0" x2="224" y2="448"/>
			<line class="st0" x1="240" y1="0" x2="240" y2="448"/>
			<line class="st1" x1="256" y1="0" x2="256" y2="448"/>
			<line class="st0" x1="272" y1="0" x2="272" y2="448"/>
			<line class="st1" x1="288" y1="0" x2="288" y2="448"/>
			<line class="st0" x1="304" y1="0" x2="304" y2="448"/>
			<line class="st1" x1="320" y1="0" x2="320" y2="448"/>
			<line class="st0" x1="336" y1="0" x2="336" y2="448"/>
			<line class="st1" x1="352" y1="0" x2="352" y2="448"/>
			<line class="st0" x1="368" y1="0" x2="368" y2="448"/>
			<line class="st1" x1="384" y1="0" x2="384" y2="448"/>
			<line class="st0" x1="400" y1="0" x2="400" y2="448"/>
			<line class="st1" x1="416" y1="0" x2="416" y2="448"/>
			<line class="st0" x1="432" y1="0" x2="432" y2="448"/>
			<line class="st0" x1="0" y1="16" x2="448" y2="16"/>
			<line class="st1" x1="0" y1="32" x2="448" y2="32"/>
			<line class="st0" x1="0" y1="48" x2="448" y2="48"/>
			<line class="st1" x1="0" y1="64" x2="448" y2="64"/>
			<line class="st0" x1="0" y1="80" x2="448" y2="80"/>
			<line class="st1" x1="0" y1="96" x2="448" y2="96"/>
			<line class="st0" x1="0" y1="112" x2="448" y2="112"/>
			<line class="st1" x1="0" y1="128" x2="448" y2="128"/>
			<line class="st0" x1="0" y1="144" x2="448" y2="144"/>
			<line class="st1" x1="0" y1="160" x2="448" y2="160"/>
			<line class="st0" x1="0" y1="176" x2="448" y2="176"/>
			<line class="st1" x1="0" y1="192" x2="448" y2="192"/>
			<line class="st0" x1="0" y1="208" x2="448" y2="208"/>
			<line class="st1" x1="0" y1="224" x2="448" y2="224"/>
			<line class="st0" x1="0" y1="240" x2="448" y2="240"/>
			<line class="st1" x1="0" y1="256" x2="448" y2="256"/>
			<line class="st0" x1="0" y1="272" x2="448" y2="272"/>
			<line class="st1" x1="0" y1="288" x2="448" y2="288"/>
			<line class="st0" x1="0" y1="304" x2="448" y2="304"/>
			<line class="st1" x1="0" y1="320" x2="448" y2="320"/>
			<line class="st0" x1="0" y1="336" x2="448" y2="336"/>
			<line class="st1" x1="0" y1="352" x2="448" y2="352"/>
			<line class="st0" x1="0" y1="368" x2="448" y2="368"/>
			<line class="st1" x1="0" y1="384" x2="448" y2="384"/>
			<line class="st0" x1="0" y1="400" x2="448" y2="400"/>
			<line class="st1" x1="0" y1="416" x2="448" y2="416"/>
			<line class="st0" x1="0" y1="432" x2="448" y2="432"/>
		</g>
	</g>
</g>
<g>
	<path d="M34.4,317.5c-1.6-1.6-2.4-3.5-2.4-5.6v-24.1H0v24.1c0,11,3.9,20.4,11.8,28.3C19.6,348,29.1,352,40.1,352h40v-32H40
		C37.8,319.8,36,319,34.4,317.5z"/>
	<path d="M436.3,107.5c-7.8-7.8-17.3-11.8-28.3-11.8H136c-11,0-20.4,3.9-28.3,11.8c-7.8,7.8-11.8,17.3-11.8,28.3v272.1
		c0,11,3.9,20.4,11.8,28.3C115.5,444,125,448,136,448h272.1c11,0,20.4-3.9,28.3-11.8c7.8-7.8,11.8-17.3,11.8-28.3V135.8
		C448.1,124.8,444.2,115.4,436.3,107.5z M416.1,407.9c0,2.2-0.8,4-2.4,5.6s-3.5,2.4-5.6,2.4H136c-2.2,0-4-0.8-5.6-2.4
		s-2.4-3.5-2.4-5.6V135.8c0-2.2,0.8-4,2.4-5.6s3.5-2.4,5.6-2.4h272.1c2.2,0,4,0.8,5.6,2.4s2.4,3.5,2.4,5.6V407.9z"/>
	<rect y="191.7" width="32" height="64.5"/>
	<rect y="95.7" width="32" height="64.5"/>
	<path d="M32,39.8c0-2.2,0.8-4,2.4-5.6c1.6-1.6,3.5-2.4,5.6-2.4h24.2v-32H40c-11,0-20.4,3.9-28.3,11.8C3.9,19.4,0,28.8,0,39.8v24.4
		h32V39.8z"/>
	<rect x="95.8" y="-0.2" width="64.5" height="32"/>
	<path d="M317.7,34.2c1.6,1.6,2.4,3.5,2.4,5.6v40h32v-40c0-11-3.9-20.4-11.8-28.3C332.5,3.7,323-0.3,312-0.3h-24.3v32H312
		C314.2,31.8,316.1,32.6,317.7,34.2z"/>
	<rect x="191.8" y="-0.2" width="64.5" height="32"/>
</g>
</svg>
