<?xml version="1.0" encoding="utf-8"?>
<!-- Generator: Adobe Illustrator 19.2.0, SVG Export Plug-In . SVG Version: 6.00 Build 0)  -->
<svg version="1.1"
	 id="svg4242" xmlns:cc="http://creativecommons.org/ns#" xmlns:dc="http://purl.org/dc/elements/1.1/" xmlns:rdf="http://www.w3.org/1999/02/22-rdf-syntax-ns#"
	 xmlns="http://www.w3.org/2000/svg" xmlns:xlink="http://www.w3.org/1999/xlink" x="0px" y="0px" viewBox="0 0 200 199.7"
	 style="enable-background:new 0 0 200 199.7;" xml:space="preserve">
<style type="text/css">
	.st0{fill:#B7CA9D;}
	.st1{fill:#3C4929;}
	.st2{fill:#759C3E;}
	.st3{fill:#4B612C;}
</style>
<g>
	<path class="st0" d="M47.7,127.8l1,1.2l51.5,14.6l0.2-9.1l-36.1-9.1l-1.8-0.6L47.7,127.8"/>
	<path class="st0" d="M152.3,127.8l-52.6,17.6l-0.2-10.9l36.1-9.1l1.6-1.8L152.3,127.8"/>
	<path class="st1" d="M99.5,65.8l36.1,8.4l15.9-0.8l0.8-1.6L102,53.8L99.5,65.8"/>
	<path class="st2" d="M64.4,125.5l-16.7,2.3l-0.5-1.7V73.7l0.5-1.8L62.8,73l1.6,1.2V125.5"/>
	<path class="st1" d="M100.5,65.8l-36.1,8.4l-16.7-2.3l0.6-1l51.9-14.8L100.5,65.8"/>
	<path class="st3" d="M99.9,26.8L40,57.1l0,85.6l59.9,30.2l0.9-1.4v-143L99.9,26.8L99.9,26.8z M82.4,138.2l-34.7-10.4v-56l34.7-10.4
		V138.2L82.4,138.2z"/>
	<path class="st3" d="M135.6,125.5l16.7,2.3l0.9-1.7V73.4l-0.9-1.6l-16.7,2.3V125.5"/>
	<path class="st2" d="M99.9,172.9l60-30.2l0-85.6L99.9,26.8V172.9L99.9,172.9z M117.6,61.5l34.7,10.4v56l-34.7,10.4V61.5L117.6,61.5
		z"/>
</g>
</svg>
