<?xml version="1.0" encoding="utf-8"?>
<!-- Generator: Adobe Illustrator 19.2.0, SVG Export Plug-In . SVG Version: 6.00 Build 0)  -->
<svg version="1.1"
	 id="svg4242" xmlns:cc="http://creativecommons.org/ns#" xmlns:dc="http://purl.org/dc/elements/1.1/" xmlns:rdf="http://www.w3.org/1999/02/22-rdf-syntax-ns#"
	 xmlns="http://www.w3.org/2000/svg" xmlns:xlink="http://www.w3.org/1999/xlink" x="0px" y="0px" viewBox="0 0 200 199.7"
	 style="enable-background:new 0 0 200 199.7;" xml:space="preserve">
<style type="text/css">
	.st0{fill:#211E1E;}
	.st1{fill:#0067C5;}
</style>
<g transform="translate(-592.515,-313.40301)">
	<path class="st0" d="M623,466.2h5.7l13.1,17.4v-17.4h6.1v28.2h-5.2l-13.6-17.8v17.8H623V466.2"/>
	<path class="st0" d="M666,482c-0.4-2.7-2-4.5-4.5-4.5c-2.5,0-4.2,1.8-4.7,4.5H666z M650.9,483.8L650.9,483.8
		c0-6.2,4.4-11.2,10.6-11.2c7.2,0,10.4,5.5,10.4,11.6c0,0.5,0,1-0.1,1.6h-14.9c0.6,2.7,2.5,4.2,5.2,4.2c2.1,0,3.5-0.6,5.2-2.2
		l3.5,3.1c-2,2.5-4.9,4-8.8,4C655.6,494.8,650.9,490.3,650.9,483.8"/>
	<path class="st0" d="M675.8,488.3v-10.1h-2.6V473h2.6v-5.5h6.1v5.5h5.1v5.2h-5.1v9.1c0,1.4,0.6,2.1,2,2.1c1.1,0,2.1-0.3,3-0.7v4.9
		c-1.3,0.8-2.8,1.2-4.8,1.2C678.3,494.7,675.8,493.3,675.8,488.3"/>
	<path class="st0" d="M735.3,483.7L735.3,483.7c0-3.6-2.4-6-5.3-6s-5.2,2.4-5.2,5.9v0.1c0,3.5,2.4,5.9,5.2,5.9
		S735.3,487.3,735.3,483.7z M718.9,473h6.1v3.1c1.5-2,3.5-3.5,6.7-3.5c5,0,9.8,3.9,9.8,11.1v0.1c0,7.2-4.7,11.1-9.8,11.1
		c-3.3,0-5.3-1.5-6.7-3.2v9.2h-6.1V473"/>
	<path class="st0" d="M760.4,483.7L760.4,483.7c0-3.6-2.4-6-5.3-6s-5.2,2.4-5.2,5.9v0.1c0,3.5,2.4,5.9,5.2,5.9
		S760.4,487.3,760.4,483.7z M743.9,473h6.1v3.1c1.5-2,3.5-3.5,6.7-3.5c5,0,9.8,3.9,9.8,11.1v0.1c0,7.2-4.7,11.1-9.8,11.1
		c-3.3,0-5.3-1.5-6.7-3.2v9.2h-6.1V473"/>
	<path class="st0" d="M706.5,482.7l-3.7-9.1l-3.7,9.1H706.5z M700.1,466.2h5.5l11.7,28.2h-6.4l-2.6-6.3h-11.1l-2.6,6.3h-6.3
		L700.1,466.2"/>
	<path class="st1" d="M623,326.4v118.7h55.5v-71.2h31.7v71.2h55.5V326.4H623"/>
	<path class="st0" d="M774.9,477.7h-0.7v-4h0l-1.4,4h-0.5l-1.4-4h0v4h-0.7V473h1.1l1.3,3.6l1.3-3.6h1.1L774.9,477.7z M769.2,473.6
		h-1.4v4.2h-0.7v-4.2h-1.4V473h3.4V473.6"/>
</g>
</svg>
