<?xml version="1.0" encoding="utf-8"?>
<!-- Generator: Adobe Illustrator 19.2.0, SVG Export Plug-In . SVG Version: 6.00 Build 0)  -->
<svg version="1.1"
	 id="svg4242" xmlns:cc="http://creativecommons.org/ns#" xmlns:dc="http://purl.org/dc/elements/1.1/" xmlns:rdf="http://www.w3.org/1999/02/22-rdf-syntax-ns#"
	 xmlns="http://www.w3.org/2000/svg" xmlns:xlink="http://www.w3.org/1999/xlink" x="0px" y="0px" viewBox="0 0 200 199.7"
	 style="enable-background:new 0 0 200 199.7;" xml:space="preserve">
<style type="text/css">
	.st0{fill:#F9B400;}
	.st1{fill:#EA434D;}
	.st2{fill:#B2770E;}
	.st3{fill:#991E31;}
</style>
<g>
	<path d="M184.4,161.1c-2.2,0-4-0.5-5.5-1.9l1.3-1.3c1.1,1.1,2.5,1.6,4.2,1.6c2.2,0,3.6-0.8,3.6-2.4c0-1.1-0.7-1.8-2.2-1.9l-2.2-0.2
		c-2.6-0.2-4-1.4-4-3.6c0-2.5,2.1-3.9,4.9-3.9c1.9,0,3.6,0.5,4.8,1.4l-1.3,1.3c-1-0.7-2.2-1.1-3.6-1.1c-1.9,0-3,0.8-3,2.2
		c0,1.1,0.7,1.8,2.4,1.9l2.2,0.2c2.4,0.2,3.9,1.1,3.9,3.6C189.8,159.6,187.6,161.1,184.4,161.1L184.4,161.1z M174.7,161l-4.2-6.9
		l-2.6,3v3.9h-2.1v-19.4h1.9v13l6-6.9h2.5l-4.5,5.1l5.3,8.3L174.7,161z M162.1,150.2c-0.7-0.7-1.3-1-2.3-1c-1.9,0-3.2,1.6-3.2,3.6
		v8.2h-1.9v-13.4h1.9v1.6c0.7-1.1,2.2-1.8,3.7-1.8c1.3,0,2.2,0.3,3.2,1.3L162.1,150.2z M149.1,159.6c-0.9,0.9-2.2,1.5-3.9,1.5
		s-2.9-0.6-3.9-1.5c-1.3-1.4-1.6-3.3-1.6-5.3s0.3-3.9,1.6-5.3c0.9-0.9,2.2-1.5,3.9-1.5s2.9,0.6,3.9,1.5c1.4,1.4,1.6,3.3,1.6,5.3
		S150.5,158.2,149.1,159.6L149.1,159.6z M147.7,150.2c-0.6-0.6-1.5-1-2.5-1c-1,0-1.8,0.4-2.4,1c-1,1-1.1,2.7-1.1,4.2
		s0.1,3.1,1.1,4.2c0.6,0.6,1.4,1,2.4,1c1,0,1.8-0.4,2.5-1c1-1,1.1-2.7,1.1-4.2S148.7,151.1,147.7,150.2L147.7,150.2z M134,161h-1.8
		l-3.5-10.4l-3.5,10.4h-1.8l-4.2-13.4h2.1l3.1,10.7l3.5-10.7h1.7l3.6,10.7l3.1-10.7h2.1L134,161z M116.2,161c-2.3,0-3.4-1.6-3.4-3.6
		v-8.2h-1.7v-1.5h1.7v-4.2h2v4.2h2.8v1.5h-2.8v8.1c0,1.2,0.5,1.9,1.8,1.9h1v1.7L116.2,161L116.2,161z M99.5,154.8
		c0,3,1.4,4.6,3.9,4.6c1.6,0,2.5-0.5,3.5-1.5l1.3,1.1c-1.4,1.4-2.6,2.1-4.9,2.1c-3.6,0-5.9-2.1-5.9-6.9c0-4.3,2.1-6.9,5.5-6.9
		c3.4,0,5.5,2.5,5.5,6.5v0.9L99.5,154.8L99.5,154.8z M106.2,151.1c-0.5-1.2-1.8-2-3.1-2c-1.4,0-2.6,0.8-3.1,2
		c-0.3,0.7-0.4,1.1-0.4,2.2h7.1C106.5,152.3,106.5,151.8,106.2,151.1L106.2,151.1z M92.2,161v-8.3c0-2.4-1.3-3.6-3.3-3.6
		s-3.3,1.2-3.3,3.6v8.3h-1.9v-13.4h1.9v1.4c1-1.1,2.2-1.6,3.7-1.6c1.4,0,2.6,0.4,3.4,1.3c1,0.9,1.4,2.2,1.4,3.7v8.6H92.2z
		 M71.1,155.4c0,1.8,1.1,3.1,3,3.1c1.5,0,2.2-0.4,3.1-1.3l2.1,2.1c-1.4,1.4-2.8,2.2-5.3,2.2c-3.3,0-6.4-1.5-6.4-7.1
		c0-4.5,2.4-7.1,6-7.1c3.9,0,6,2.8,6,6.6v1.5C79.7,155.4,71.1,155.4,71.1,155.4z M76,151.5c-0.4-0.8-1.1-1.4-2.3-1.4
		c-1.1,0-1.9,0.6-2.3,1.4c-0.2,0.5-0.3,0.9-0.3,1.5h5.3C76.4,152.4,76.2,152.1,76,151.5L76,151.5z M58.7,166.4c-2.1,0-3.6-0.4-5-1.8
		l2.2-2.2c0.8,0.7,1.5,1.1,2.7,1.1c2.1,0,2.8-1.4,2.8-2.8v-1.4c-0.9,1-1.9,1.4-3.3,1.4c-1.4,0-2.5-0.4-3.3-1.2
		c-1.3-1.3-1.4-3.1-1.4-5.5c0-2.4,0.1-4.2,1.4-5.5c0.8-0.8,2-1.2,3.3-1.2c1.4,0,2.4,0.4,3.4,1.4v-1.3h3.3v13.3
		C64.8,164,62.4,166.4,58.7,166.4L58.7,166.4z M59,150.3c-2.1,0-2.2,1.8-2.2,3.6s0.2,3.6,2.2,3.6s2.3-1.8,2.3-3.6
		C61.3,152.1,61.1,150.3,59,150.3L59,150.3z M47.1,161.3v-1.2c-0.9,0.9-1.8,1.3-3.4,1.3s-2.7-0.4-3.5-1.2c-0.7-0.8-1.1-1.9-1.1-3.1
		c0-2.2,1.5-4,4.7-4H47v-0.7c0-1.5-0.7-2.2-2.6-2.2c-1.3,0-1.9,0.3-2.7,1.1l-2.2-2.2c1.3-1.5,2.7-1.9,5-1.9c3.9,0,5.9,1.6,5.9,4.9
		v9.1L47.1,161.3L47.1,161.3z M47,155.4h-2.7c-1.3,0-1.9,0.6-1.9,1.6c0,1,0.7,1.6,2,1.6c1,0,1.6-0.1,2.2-0.7
		c0.4-0.4,0.5-0.9,0.5-1.8L47,155.4z M33,161.3V160c-0.9,1-2.2,1.4-3.4,1.4c-1.4,0-2.5-0.4-3.3-1.2c-1.1-1.1-1.4-2.4-1.4-3.9v-8.9
		h3.4v8.4c0,1.9,1.2,2.5,2.3,2.5c1.1,0,2.3-0.7,2.3-2.5v-8.4h3.4v13.8H33z M18.2,161.3v-8.4c0-1.9-1.2-2.5-2.3-2.5s-2.3,0.7-2.3,2.5
		v8.4h-3.4v-13.8h3.4v1.3c0.9-1,2.2-1.4,3.4-1.4c1.4,0,2.5,0.4,3.3,1.2c1.1,1.1,1.4,2.4,1.4,3.9v8.8L18.2,161.3L18.2,161.3z"/>
	<g>
		<rect x="97.1" y="104.1" class="st0" width="5.8" height="5.8"/>
		<rect x="87" y="114.3" class="st1" width="5.8" height="5.8"/>
		<rect x="97.1" y="114.3" class="st2" width="5.8" height="5.8"/>
		<rect x="66.7" y="104.1" class="st3" width="5.8" height="5.8"/>
		<rect x="76.9" y="104.1" class="st2" width="5.8" height="5.8"/>
		<rect x="157.9" y="104.1" class="st0" width="5.8" height="5.8"/>
		<rect x="147.8" y="104.1" class="st1" width="5.8" height="5.8"/>
		<rect x="157.9" y="63.6" class="st1" width="5.8" height="5.8"/>
		<rect x="147.8" y="63.6" class="st0" width="5.8" height="5.8"/>
		<rect x="137.6" y="63.6" class="st1" width="5.8" height="5.8"/>
		<rect x="127.5" y="63.6" class="st0" width="5.8" height="5.8"/>
		<rect x="117.4" y="63.6" class="st1" width="5.8" height="5.8"/>
		<rect x="107.2" y="63.6" class="st0" width="5.8" height="5.8"/>
		<rect x="168" y="94" class="st1" width="5.8" height="5.8"/>
		<rect x="157.9" y="94" class="st0" width="5.8" height="5.8"/>
		<rect x="127.5" y="83.9" class="st2" width="5.8" height="5.8"/>
		<rect x="137.6" y="83.9" class="st1" width="5.8" height="5.8"/>
		<rect x="147.8" y="94" class="st1" width="5.8" height="5.8"/>
		<rect x="137.6" y="94" class="st0" width="5.8" height="5.8"/>
		<rect x="107.2" y="83.9" class="st2" width="5.8" height="5.8"/>
		<rect x="117.4" y="83.9" class="st3" width="5.8" height="5.8"/>
		<rect x="107.2" y="73.8" class="st1" width="5.8" height="5.8"/>
		<rect x="117.4" y="73.8" class="st0" width="5.8" height="5.8"/>
		<rect x="127.5" y="73.8" class="st3" width="5.8" height="5.8"/>
		<rect x="137.6" y="73.8" class="st0" width="5.8" height="5.8"/>
		<rect x="127.5" y="94" class="st1" width="5.8" height="5.8"/>
		<rect x="117.4" y="94" class="st0" width="5.8" height="5.8"/>
		<rect x="168" y="83.9" class="st3" width="5.8" height="5.8"/>
		<rect x="107.2" y="94" class="st1" width="5.8" height="5.8"/>
		<rect x="147.8" y="83.9" class="st3" width="5.8" height="5.8"/>
		<rect x="157.9" y="83.9" class="st1" width="5.8" height="5.8"/>
		<rect x="147.8" y="73.8" class="st1" width="5.8" height="5.8"/>
		<rect x="157.9" y="73.8" class="st2" width="5.8" height="5.8"/>
		<rect x="168" y="73.8" class="st1" width="5.8" height="5.8"/>
		<rect x="137.6" y="104.1" class="st1" width="5.8" height="5.8"/>
		<rect x="117.4" y="104.1" class="st1" width="5.8" height="5.8"/>
		<rect x="117.4" y="114.3" class="st3" width="5.8" height="5.8"/>
		<rect x="127.5" y="114.3" class="st1" width="5.8" height="5.8"/>
		<rect x="107.2" y="104.1" class="st2" width="5.8" height="5.8"/>
		<rect x="127.5" y="104.1" class="st0" width="5.8" height="5.8"/>
		<rect x="127.5" y="53.5" class="st1" width="5.8" height="5.8"/>
		<rect x="127.5" y="43.5" class="st3" width="5.8" height="5.8"/>
		<rect x="26.2" y="94" class="st1" width="5.8" height="5.8"/>
		<rect x="36.4" y="94" class="st0" width="5.8" height="5.8"/>
		<rect x="46.5" y="104.1" class="st3" width="5.8" height="5.8"/>
		<rect x="36.4" y="104.1" class="st1" width="5.8" height="5.8"/>
		<rect x="46.5" y="83.9" class="st2" width="5.8" height="5.8"/>
		<rect x="56.6" y="104.1" class="st1" width="5.8" height="5.8"/>
		<rect x="56.6" y="83.9" class="st1" width="5.8" height="5.8"/>
		<rect x="46.5" y="94" class="st1" width="5.8" height="5.8"/>
		<rect x="56.6" y="94" class="st0" width="5.8" height="5.8"/>
		<rect x="26.2" y="83.9" class="st3" width="5.8" height="5.8"/>
		<rect x="36.4" y="83.9" class="st1" width="5.8" height="5.8"/>
		<rect x="26.2" y="73.8" class="st1" width="5.8" height="5.8"/>
		<rect x="36.4" y="73.8" class="st0" width="5.8" height="5.8"/>
		<rect x="56.6" y="63.6" class="st1" width="5.8" height="5.8"/>
		<rect x="46.5" y="73.8" class="st1" width="5.8" height="5.8"/>
		<rect x="66.7" y="114.3" class="st1" width="5.8" height="5.8"/>
		<rect x="56.6" y="73.8" class="st0" width="5.8" height="5.8"/>
		<rect x="46.5" y="63.6" class="st2" width="5.8" height="5.8"/>
		<rect x="66.7" y="94" class="st2" width="5.8" height="5.8"/>
		<rect x="76.9" y="94" class="st0" width="5.8" height="5.8"/>
		<rect x="87" y="83.9" class="st3" width="5.8" height="5.8"/>
		<rect x="97.1" y="83.9" class="st1" width="5.8" height="5.8"/>
		<rect x="87" y="94" class="st1" width="5.8" height="5.8"/>
		<rect x="87" y="104.1" class="st2" width="5.8" height="5.8"/>
		<rect x="97.1" y="94" class="st0" width="5.8" height="5.8"/>
		<rect x="66.7" y="83.9" class="st3" width="5.8" height="5.8"/>
		<rect x="76.9" y="83.9" class="st2" width="5.8" height="5.8"/>
		<rect x="66.7" y="73.8" class="st1" width="5.8" height="5.8"/>
		<rect x="76.9" y="114.5" class="st0" width="5.8" height="5.8"/>
		<rect x="76.9" y="73.8" class="st0" width="5.8" height="5.8"/>
		<rect x="107.2" y="114.3" class="st1" width="5.8" height="5.8"/>
		<rect x="97.1" y="124.4" class="st1" width="5.8" height="5.8"/>
		<rect x="76.9" y="124.4" class="st2" width="5.8" height="5.8"/>
		<rect x="87" y="124.4" class="st2" width="5.8" height="5.8"/>
		<rect x="97.1" y="63.6" class="st1" width="5.8" height="5.8"/>
		<rect x="87" y="73.8" class="st1" width="5.8" height="5.8"/>
		<rect x="97.1" y="73.8" class="st2" width="5.8" height="5.8"/>
		<rect x="66.7" y="63.6" class="st3" width="5.8" height="5.8"/>
		<rect x="56.6" y="53.5" class="st2" width="5.8" height="5.8"/>
		<rect x="76.9" y="63.6" class="st2" width="5.8" height="5.8"/>
		<rect x="66.7" y="53.5" class="st1" width="5.8" height="5.8"/>
		<rect x="56.6" y="43.5" class="st0" width="5.8" height="5.8"/>
		<rect x="76.9" y="53.5" class="st0" width="5.8" height="5.8"/>
		<rect x="87" y="33.3" class="st3" width="5.8" height="5.8"/>
		<rect x="117.4" y="43.5" class="st1" width="5.8" height="5.8"/>
		<rect x="107.2" y="53.5" class="st1" width="5.8" height="5.8"/>
		<rect x="137.6" y="53.5" class="st2" width="5.8" height="5.8"/>
		<rect x="117.4" y="53.5" class="st0" width="5.8" height="5.8"/>
		<rect x="87" y="43.5" class="st3" width="5.8" height="5.8"/>
		<rect x="97.1" y="43.5" class="st1" width="5.8" height="5.8"/>
		<rect x="87" y="53.5" class="st1" width="5.8" height="5.8"/>
		<rect x="87" y="63.6" class="st2" width="5.8" height="5.8"/>
		<rect x="97.1" y="53.5" class="st0" width="5.8" height="5.8"/>
		<rect x="66.7" y="43.5" class="st3" width="5.8" height="5.8"/>
		<rect x="76.9" y="43.5" class="st1" width="5.8" height="5.8"/>
		<rect x="66.7" y="33.3" class="st1" width="5.8" height="5.8"/>
		<rect x="76.9" y="33.3" class="st0" width="5.8" height="5.8"/>
	</g>
</g>
</svg>
