<?xml version="1.0" encoding="utf-8"?>
<!-- Generator: Adobe Illustrator 19.2.0, SVG Export Plug-In . SVG Version: 6.00 Build 0)  -->
<svg version="1.1" id="Layer_1" xmlns="http://www.w3.org/2000/svg" xmlns:xlink="http://www.w3.org/1999/xlink" x="0px" y="0px"
	 viewBox="0 0 200 200" style="enable-background:new 0 0 200 200;" xml:space="preserve">
<style type="text/css">
	.st0{enable-background:new    ;}
	.st1{clip-path:url(#SVGID_2_);enable-background:new    ;}
	.st2{fill:#BB3727;}
	.st3{fill:#BD3827;}
	.st4{fill:#C23A28;}
	.st5{fill:#B63527;}
	.st6{fill:#B43327;}
	.st7{fill:#B13126;}
	.st8{fill:#AE3125;}
	.st9{fill:#AA3025;}
	.st10{fill:#A72D24;}
	.st11{fill:#A22C23;}
	.st12{fill:#9D2C22;}
	.st13{fill:#9A2C21;}
	.st14{fill:#972920;}
	.st15{fill:#942820;}
	.st16{fill:#90261E;}
	.st17{fill:#8D241D;}
	.st18{fill:#8A241C;}
	.st19{fill:#87241B;}
	.st20{fill:#C33A28;}
	.st21{clip-path:url(#SVGID_4_);enable-background:new    ;}
	.st22{clip-path:url(#SVGID_6_);enable-background:new    ;}
	.st23{fill:#82211A;}
	.st24{fill:#D73D27;}
	.st25{fill:#E5574F;}
	.st26{fill:#E1493B;}
	.st27{clip-path:url(#SVGID_8_);enable-background:new    ;}
	.st28{clip-path:url(#SVGID_10_);enable-background:new    ;}
	.st29{clip-path:url(#SVGID_12_);enable-background:new    ;}
	.st30{fill:#6E6D6E;}
	.st31{fill:#CE3428;}
	.st32{fill:#F1F5F6;stroke:#FFFFFF;stroke-width:1.634;stroke-miterlimit:10;}
	.st33{fill:#6B919F;}
	.st34{fill:#CECCCB;}
</style>
<g>
	<g>
		<g class="st0">
			<g class="st0">
				<g>
					<defs>
						<path id="SVGID_1_" d="M116.6,88.1L106,77.6c1.5-0.1,2.7-1.4,2.7-2.9l10.6,10.5C119.3,86.7,118.1,87.9,116.6,88.1z"/>
					</defs>
					<clipPath id="SVGID_2_">
						<use xlink:href="#SVGID_1_"  style="overflow:visible;"/>
					</clipPath>
					<g class="st1">
						<path class="st2" d="M116.6,88.1L106,77.6h0.1L116.6,88.1C116.7,88.1,116.7,88.1,116.6,88.1"/>
						<path class="st3" d="M116.8,88.1l-10.6-10.5c0.1,0,0.3,0,0.4-0.1L117.2,88C117,88,116.9,88,116.8,88.1"/>
						<path class="st4" d="M117.2,88l-10.6-10.5c0.2-0.1,0.4-0.1,0.6-0.2l10.6,10.5C117.5,87.8,117.4,87.9,117.2,88"/>
						<path class="st3" d="M117.7,87.7l-10.6-10.5c0.1-0.1,0.2-0.1,0.4-0.2l10.6,10.5C118,87.6,117.8,87.7,117.7,87.7"/>
						<path class="st2" d="M118.1,87.5L107.4,77c0.1-0.1,0.1-0.1,0.2-0.2l10.6,10.5C118.2,87.4,118.1,87.5,118.1,87.5"/>
						<path class="st5" d="M118.3,87.4l-10.6-10.5c0.1,0,0.1-0.1,0.2-0.1l10.6,10.5C118.4,87.3,118.3,87.3,118.3,87.4"/>
						<path class="st6" d="M118.4,87.2l-10.6-10.5l0.1-0.1L118.4,87.2C118.5,87.1,118.5,87.2,118.4,87.2"/>
						<path class="st7" d="M118.6,87.1L108,76.6l0.1-0.1L118.6,87.1C118.6,87,118.6,87,118.6,87.1"/>
						<path class="st8" d="M118.7,86.9L108,76.4l0.1-0.1L118.7,86.9L118.7,86.9"/>
						<path class="st9" d="M118.8,86.8l-10.6-10.5l0.1-0.1L118.8,86.8C118.8,86.7,118.8,86.7,118.8,86.8"/>
						<path class="st10" d="M118.9,86.7l-10.6-10.5l0.1-0.1L118.9,86.7C118.9,86.6,118.9,86.6,118.9,86.7"/>
						<path class="st11" d="M118.9,86.5L108.3,76l0.1-0.1L118.9,86.5C119,86.4,119,86.5,118.9,86.5"/>
						<path class="st12" d="M119,86.4l-10.6-10.5c0,0,0-0.1,0.1-0.1L119,86.4C119.1,86.3,119,86.3,119,86.4"/>
						<path class="st13" d="M119.1,86.3l-10.6-10.5c0,0,0-0.1,0.1-0.1L119.1,86.3C119.1,86.2,119.1,86.2,119.1,86.3"/>
						<path class="st14" d="M119.1,86.1l-10.6-10.5c0-0.1,0-0.1,0.1-0.1L119.1,86.1L119.1,86.1"/>
						<path class="st15" d="M119.2,86l-10.6-10.5c0,0,0-0.1,0-0.2l10.6,10.5C119.2,85.9,119.2,85.9,119.2,86"/>
						<path class="st16" d="M119.2,85.8l-10.6-10.5c0-0.1,0-0.1,0-0.2l10.6,10.5C119.2,85.7,119.2,85.7,119.2,85.8"/>
						<path class="st17" d="M119.3,85.6l-10.6-10.5c0-0.1,0-0.1,0-0.2l10.6,10.5C119.3,85.5,119.3,85.6,119.3,85.6"/>
						<path class="st18" d="M119.3,85.4l-10.6-10.5c0-0.1,0-0.1,0-0.2l10.6,10.5C119.3,85.3,119.3,85.4,119.3,85.4"/>
						<path class="st19" d="M119.3,85.2l-10.6-10.5c0,0,0,0,0-0.1L119.3,85.2L119.3,85.2"/>
					</g>
				</g>
			</g>
			<g>
				<g>
					<polygon class="st18" points="119.3,81.5 108.7,71 124.8,69.5 135.4,80.1 					"/>
				</g>
				<g>
					<polygon class="st18" points="119.3,81.5 108.7,71 124.8,69.5 135.4,80.1 					"/>
				</g>
			</g>
			<g>
				<polygon class="st18" points="119.3,85.2 108.7,74.7 108.7,71 119.3,81.5 				"/>
			</g>
			<g>
				<polygon class="st20" points="77,91.5 66.4,81 106,77.6 116.6,88.1 				"/>
			</g>
			<g class="st0">
				<g>
					<defs>
						<path id="SVGID_3_" d="M75,90.9c-0.2-0.2-0.4-0.4-0.5-0.5c-3.4-3.3-6.7-6.7-10.1-10c0.5,0.5,1.2,0.7,2,0.7L77,91.5
							C76.2,91.6,75.5,91.3,75,90.9z"/>
					</defs>
					<clipPath id="SVGID_4_">
						<use xlink:href="#SVGID_3_"  style="overflow:visible;"/>
					</clipPath>
					<g class="st21">
						<path class="st15" d="M75,90.9L64.4,80.3l0.1,0.1L75.2,91C75.1,90.9,75.1,90.9,75,90.9"/>
						<path class="st14" d="M75.2,91L64.5,80.4c0.1,0.1,0.1,0.1,0.2,0.1L75.2,91C75.3,91.1,75.2,91,75.2,91"/>
						<path class="st13" d="M75.3,91.1L64.7,80.6c0.1,0,0.1,0.1,0.2,0.1l10.6,10.5C75.4,91.2,75.4,91.1,75.3,91.1"/>
						<path class="st12" d="M75.5,91.2L64.8,80.7c0.1,0,0.1,0.1,0.2,0.1L75.5,91.2C75.6,91.3,75.5,91.2,75.5,91.2"/>
						<path class="st11" d="M75.6,91.3L65,80.8c0.1,0,0.1,0.1,0.2,0.1l10.6,10.5C75.7,91.3,75.7,91.3,75.6,91.3"/>
						<path class="st10" d="M75.8,91.4L65.2,80.9c0.1,0,0.1,0,0.2,0.1L76,91.4C75.9,91.4,75.9,91.4,75.8,91.4"/>
						<path class="st9" d="M76,91.4L65.3,80.9c0.1,0,0.1,0,0.2,0.1L76,91.4L76,91.4"/>
						<path class="st8" d="M76.1,91.5L65.5,81c0.1,0,0.1,0,0.2,0l10.6,10.5C76.2,91.5,76.2,91.5,76.1,91.5"/>
						<path class="st7" d="M76.3,91.5L65.7,81c0.1,0,0.1,0,0.2,0l10.6,10.5C76.4,91.5,76.3,91.5,76.3,91.5"/>
						<path class="st6" d="M76.5,91.5L65.8,81c0.1,0,0.1,0,0.2,0L76.5,91.5C76.6,91.6,76.5,91.5,76.5,91.5"/>
						<path class="st5" d="M76.7,91.6L66,81c0.1,0,0.1,0,0.2,0L76.7,91.6C76.8,91.6,76.7,91.6,76.7,91.6"/>
						<path class="st2" d="M76.9,91.6L66.2,81h0.1L76.9,91.6C77,91.6,76.9,91.6,76.9,91.6"/>
					</g>
				</g>
			</g>
			<g class="st0">
				<g>
					<defs>
						<path id="SVGID_5_" d="M59.6,107.5L48.9,97c-0.8-0.8-1.4-2-1.4-3.3l10.6,10.5C58.2,105.5,58.7,106.6,59.6,107.5z"/>
					</defs>
					<clipPath id="SVGID_6_">
						<use xlink:href="#SVGID_5_"  style="overflow:visible;"/>
					</clipPath>
					<g class="st22">
						<path class="st23" d="M59.6,107.5L48.9,97c-0.8-0.7-1.3-1.8-1.3-2.9l10.6,10.5C58.3,105.7,58.8,106.7,59.6,107.5"/>
						<path class="st19" d="M58.2,104.5L47.6,94c0-0.1,0-0.3,0-0.4l10.6,10.5C58.2,104.3,58.2,104.4,58.2,104.5"/>
					</g>
				</g>
			</g>
			<g>
				<path class="st24" d="M135.4,80.1v17.3c0,2.8-2.3,5.3-5.1,5.5l-66.9,5.9c-2.8,0.2-5.1-1.8-5.1-4.7V86.8l16.1-1.4v3.7
					c0,1.5,1.2,2.6,2.7,2.4l39.6-3.5c1.5-0.1,2.7-1.4,2.7-2.9v-3.7L135.4,80.1z"/>
			</g>
			<g>
				<g>
					<polygon class="st18" points="58.2,86.8 47.6,76.3 63.7,74.9 74.3,85.4 					"/>
				</g>
				<g>
					<polygon class="st18" points="58.2,86.8 47.6,76.3 63.7,74.9 74.3,85.4 					"/>
				</g>
			</g>
			<g>
				<polygon class="st18" points="58.2,104.1 47.6,93.6 47.6,76.3 58.2,86.8 				"/>
			</g>
		</g>
		<g class="st0">
			<g>
				<g>
					<polygon class="st25" points="135.3,50.8 135.4,76.3 119.3,77.7 119.2,52.2 					"/>
				</g>
				<g>
					<polygon class="st26" points="135.3,50.8 135.4,76.3 119.3,77.7 119.2,52.2 					"/>
				</g>
			</g>
			<g>
				<polygon class="st18" points="119.3,77.7 108.7,67.2 108.6,41.7 119.2,52.2 				"/>
			</g>
			<g>
				<g>
					<polygon class="st18" points="119.2,52.2 108.6,41.7 124.7,40.3 135.3,50.8 					"/>
				</g>
				<g>
					<polygon class="st18" points="119.2,52.2 108.6,41.7 124.7,40.3 135.3,50.8 					"/>
				</g>
			</g>
		</g>
		<g class="st0">
			<g>
				<g>
					<polygon class="st25" points="74.2,56.2 74.3,81.7 58.3,83.1 58.2,57.6 					"/>
				</g>
				<g>
					<polygon class="st26" points="74.2,56.2 74.3,81.7 58.3,83.1 58.2,57.6 					"/>
				</g>
			</g>
			<g>
				<polygon class="st18" points="58.3,83.1 47.6,72.6 47.5,47.1 58.2,57.6 				"/>
			</g>
			<g>
				<polygon class="st18" points="58.2,57.6 47.5,47.1 63.6,45.7 74.2,56.2 				"/>
			</g>
		</g>
	</g>
	<g>
		<g class="st0">
			<g>
				<polygon class="st18" points="119.3,48.4 108.7,37.9 108.7,34.7 119.3,45.2 				"/>
			</g>
			<g class="st0">
				<g>
					<defs>
						<path id="SVGID_7_" d="M108,33c3.5,3.5,7.1,7,10.6,10.5c0.4,0.4,0.7,1.1,0.7,1.8l-10.6-10.5C108.7,34,108.4,33.4,108,33z"/>
					</defs>
					<clipPath id="SVGID_8_">
						<use xlink:href="#SVGID_7_"  style="overflow:visible;"/>
					</clipPath>
					<g class="st27">
						<path class="st19" d="M119.3,45.2l-10.6-10.5c0-0.1,0-0.1,0-0.2L119.3,45C119.3,45.1,119.3,45.2,119.3,45.2"/>
						<path class="st23" d="M119.3,45l-10.6-10.5c0-0.6-0.3-1.2-0.7-1.5l10.6,10.5C119,43.9,119.2,44.4,119.3,45"/>
					</g>
				</g>
			</g>
			<g class="st0">
				<g>
					<defs>
						<path id="SVGID_9_" d="M123.4,16.4c0.7,0.7,1.4,1.4,2.1,2.1c2.8,2.8,5.7,5.6,8.5,8.4c-0.9-0.9-2.3-1.4-3.7-1.3l-10.6-10.5
							C121.2,14.9,122.5,15.4,123.4,16.4z"/>
					</defs>
					<clipPath id="SVGID_10_">
						<use xlink:href="#SVGID_9_"  style="overflow:visible;"/>
					</clipPath>
					<g class="st28">
						<path class="st2" d="M130.3,25.6l-10.6-10.5c0.1,0,0.1,0,0.2,0l10.6,10.5C130.5,25.6,130.4,25.6,130.3,25.6"/>
						<path class="st5" d="M130.5,25.6l-10.6-10.5c0.1,0,0.3,0,0.4,0L131,25.6C130.8,25.6,130.7,25.6,130.5,25.6"/>
						<path class="st6" d="M131,25.6l-10.6-10.5c0.1,0,0.2,0,0.4,0l10.6,10.5C131.2,25.6,131.1,25.6,131,25.6"/>
						<path class="st7" d="M131.3,25.6l-10.6-10.5c0.1,0,0.2,0,0.3,0l10.6,10.5C131.6,25.6,131.4,25.6,131.3,25.6"/>
						<path class="st8" d="M131.7,25.7L121,15.1c0.1,0,0.2,0,0.3,0.1L132,25.7C131.9,25.7,131.8,25.7,131.7,25.7"/>
						<path class="st9" d="M132,25.7l-10.6-10.5c0.1,0,0.2,0.1,0.3,0.1l10.6,10.5C132.2,25.8,132.1,25.7,132,25.7"/>
						<path class="st10" d="M132.3,25.8l-10.6-10.5c0.1,0,0.2,0.1,0.3,0.1l10.6,10.5C132.5,25.9,132.4,25.8,132.3,25.8"/>
						<path class="st11" d="M132.6,25.9L122,15.4c0.1,0,0.2,0.1,0.3,0.1L132.9,26C132.8,26,132.7,26,132.6,25.9"/>
						<path class="st12" d="M132.9,26.1l-10.6-10.5c0.1,0.1,0.2,0.1,0.3,0.2l10.6,10.5C133.1,26.2,133,26.1,132.9,26.1"/>
						<path class="st13" d="M133.2,26.2l-10.6-10.5c0.1,0.1,0.2,0.1,0.3,0.2l10.6,10.5C133.4,26.4,133.3,26.3,133.2,26.2"/>
						<path class="st14" d="M133.5,26.4l-10.6-10.5c0.1,0.1,0.2,0.2,0.3,0.3l10.6,10.5C133.8,26.6,133.6,26.5,133.5,26.4"/>
						<path class="st15" d="M133.9,26.7l-10.6-10.5c0.1,0.1,0.1,0.1,0.2,0.2l10.6,10.5C134,26.8,133.9,26.8,133.9,26.7"/>
					</g>
				</g>
			</g>
			<g>
				<polygon class="st18" points="58.2,53.8 47.6,43.2 47.7,26.4 58.3,36.9 				"/>
			</g>
			<g>
				<polygon class="st20" points="63.4,31.4 52.8,20.9 119.7,15.1 130.3,25.6 				"/>
			</g>
			<g>
				<g>
					<path class="st25" d="M63.4,31.4l66.9-5.8c2.8-0.2,5.1,1.8,5.1,4.7l0,16.7l-16.1,1.4v-3.2c0-1.5-1.2-2.6-2.7-2.4L77,46.3
						c-1.5,0.1-2.7,1.4-2.7,2.9v3.2l-16.1,1.4V37C58.3,34.1,60.6,31.7,63.4,31.4z"/>
				</g>
				<g>
					<path class="st25" d="M63.4,31.4l66.9-5.8c2.8-0.2,5.1,1.8,5.1,4.7l0,16.7l-16.1,1.4v-3.2c0-1.5-1.2-2.6-2.7-2.4L77,46.3
						c-1.5,0.1-2.7,1.4-2.7,2.9v3.2l-16.1,1.4V37C58.3,34.1,60.6,31.7,63.4,31.4z"/>
				</g>
			</g>
			<g class="st0">
				<g>
					<defs>
						<path id="SVGID_11_" d="M58.3,36.9L47.7,26.4c0-2.8,2.3-5.3,5.1-5.5l10.6,10.5C60.6,31.7,58.3,34.1,58.3,36.9z"/>
					</defs>
					<clipPath id="SVGID_12_">
						<use xlink:href="#SVGID_11_"  style="overflow:visible;"/>
					</clipPath>
					<g class="st29">
						<path class="st19" d="M58.3,36.9L47.7,26.4v-0.1l10.6,10.5C58.3,36.9,58.3,36.9,58.3,36.9"/>
						<path class="st18" d="M58.3,36.8L47.7,26.3c0-0.1,0-0.3,0-0.4l10.6,10.5C58.3,36.6,58.3,36.7,58.3,36.8"/>
						<path class="st17" d="M58.3,36.4L47.7,25.9c0-0.1,0-0.2,0-0.4L58.3,36C58.3,36.2,58.3,36.3,58.3,36.4"/>
						<path class="st16" d="M58.4,36.1L47.7,25.5c0-0.1,0-0.2,0.1-0.3l10.6,10.5C58.4,35.8,58.4,36,58.4,36.1"/>
						<path class="st15" d="M58.4,35.7L47.8,25.2c0-0.1,0-0.2,0.1-0.3l10.6,10.5C58.5,35.5,58.5,35.6,58.4,35.7"/>
						<path class="st14" d="M58.5,35.4L47.9,24.9c0-0.1,0.1-0.2,0.1-0.3l10.6,10.5C58.6,35.3,58.5,35.3,58.5,35.4"/>
						<path class="st13" d="M58.6,35.2L48,24.6c0-0.1,0.1-0.2,0.1-0.3l10.6,10.5C58.7,35,58.6,35.1,58.6,35.2"/>
						<path class="st12" d="M58.7,34.9L48.1,24.4c0-0.1,0.1-0.2,0.1-0.3l10.6,10.5C58.8,34.7,58.7,34.8,58.7,34.9"/>
						<path class="st11" d="M58.8,34.6L48.2,24.1c0-0.1,0.1-0.2,0.1-0.3L59,34.4C58.9,34.4,58.9,34.5,58.8,34.6"/>
						<path class="st10" d="M59,34.4L48.3,23.8c0-0.1,0.1-0.2,0.1-0.3L59,34C59.1,34.2,59,34.3,59,34.4"/>
						<path class="st9" d="M59.1,34.1L48.5,23.6c0.1-0.1,0.1-0.2,0.2-0.3l10.6,10.5C59.2,33.9,59.2,34,59.1,34.1"/>
						<path class="st8" d="M59.3,33.9L48.6,23.3c0.1-0.1,0.1-0.2,0.2-0.3l10.6,10.5C59.4,33.7,59.3,33.8,59.3,33.9"/>
						<path class="st7" d="M59.5,33.6L48.8,23.1c0.1-0.1,0.1-0.2,0.2-0.3l10.6,10.5C59.6,33.4,59.5,33.5,59.5,33.6"/>
						<path class="st6" d="M59.7,33.3L49,22.8c0.1-0.1,0.2-0.2,0.2-0.3L59.8,33C59.8,33.2,59.8,33.2,59.7,33.3"/>
						<path class="st5" d="M59.9,33.1L49.3,22.6c0.1-0.1,0.2-0.2,0.3-0.3l10.6,10.5C60.1,32.9,60,33,59.9,33.1"/>
						<path class="st2" d="M60.2,32.8L49.6,22.3c0.1-0.1,0.3-0.2,0.4-0.3l10.6,10.5C60.5,32.6,60.4,32.7,60.2,32.8"/>
						<path class="st3" d="M60.6,32.5L50,22c0.2-0.2,0.4-0.3,0.7-0.4l10.6,10.5C61.1,32.2,60.8,32.3,60.6,32.5"/>
						<path class="st4" d="M61.3,32.1L50.6,21.5c0.3-0.2,0.7-0.3,1.1-0.5l10.6,10.5C62,31.7,61.6,31.9,61.3,32.1"/>
						<path class="st3" d="M62.4,31.6L51.7,21.1c0.2-0.1,0.5-0.1,0.8-0.2l10.6,10.5C62.9,31.5,62.6,31.5,62.4,31.6"/>
						<path class="st2" d="M63.1,31.4L52.5,20.9c0.1,0,0.2,0,0.3,0l10.6,10.5C63.3,31.4,63.2,31.4,63.1,31.4"/>
					</g>
				</g>
			</g>
		</g>
	</g>
</g>
<g>
	<path class="st30" d="M36.4,142.6c0,9.3-4.3,12.4-8,12.4c-4.3,0-7.8-3.9-7.8-12.3c0-8.7,3.9-12.4,8-12.4
		C32.9,130.3,36.4,134.3,36.4,142.6z M24.4,142.6c0,4,0.7,9.4,4.2,9.4c3.3,0,4-5.6,4-9.4c0-3.7-0.7-9.3-4.1-9.3
		S24.4,138.9,24.4,142.6z"/>
	<path class="st30" d="M40.6,138.1c0-3.7-0.1-5.8-0.2-7.5h3.4l0.2,3.1l0,0c1.3-2.5,3.2-3.4,5.1-3.4c4.2,0,6.9,4.4,6.9,12.3
		c0,8.9-3.7,12.4-7.4,12.4c-2.3,0-3.6-1.4-4.2-2.8h-0.1v11.9h-3.8L40.6,138.1L40.6,138.1z M44.3,145.8c0,0.7,0,1.4,0.2,2
		c0.7,3.4,2.5,4,3.5,4c3.2,0,4.2-4.4,4.2-9.2c0-4.9-1.2-9.1-4.3-9.1c-1.7,0-3.3,2.1-3.5,4.3c-0.1,0.5-0.1,1.2-0.1,1.8
		C44.3,139.6,44.3,145.8,44.3,145.8z"/>
	<path class="st30" d="M63,142.9c0,7.4,2.9,8.9,5.6,8.9c1.7,0,3-0.4,4-0.9l0.6,2.8c-1.3,0.7-3.4,1.1-5.3,1.1c-5.7,0-8.7-4.7-8.7-12
		c0-7.7,3.3-12.6,8.1-12.6c4.9,0,6.8,5.1,6.8,10.5c0,0.9,0,1.6-0.1,2.2H63z M70.6,140.1c0.1-4.8-1.7-6.9-3.6-6.9
		c-2.5,0-3.8,3.6-3.9,6.9H70.6z"/>
	<path class="st30" d="M78.3,136.8c0-2.8-0.1-4.3-0.2-6.2h3.3l0.2,2.9h0.1c1-1.9,3-3.3,5.5-3.3c3.3,0,5.8,2.4,5.8,8.2v16.1h-3.8
		v-15.4c0-2.9-0.5-5.7-3.3-5.7c-1.6,0-3.1,1.3-3.6,3.9c-0.1,0.6-0.2,1.3-0.2,2.2v15h-3.8V136.8z"/>
	<path class="st31" d="M97.7,150.6c0.8,0.5,2.3,1.2,3.9,1.2c2.1,0,3.5-1.3,3.5-3.5c0-1.8-0.6-3.1-3.1-4.7c-3.1-2-4.8-4.1-4.8-6.8
		c0-3.9,2.9-6.6,6.6-6.6c1.9,0,3.3,0.6,4.3,1.2l-1,2.9c-0.9-0.6-1.9-1.1-3.2-1.1c-2,0-3.1,1.5-3.1,3.1s0.6,2.5,3,4.1
		c2.8,1.8,5,4,5,7.3c0,4.8-3.3,7.1-7.2,7.1c-1.7,0-3.7-0.5-4.7-1.4L97.7,150.6z"/>
	<path class="st31" d="M117.3,125v5.6h4.6v2.9h-4.6v14.3c0,3.1,1.1,4,2.5,4c0.6,0,1.1,0,1.5-0.1l0.2,2.9c-0.7,0.2-1.6,0.4-2.8,0.4
		c-1.5,0-2.9-0.4-3.8-1.4c-1-1.1-1.4-2.7-1.4-6v-13.9h-2.9v-2.9h2.9v-4.1L117.3,125z"/>
	<path class="st31" d="M137.9,149.1c0,1.8,0,3.9,0.2,5.4h-3.4l-0.2-2.5h-0.2c-1,1.8-2.7,2.9-4.8,2.9c-3.2,0-5.6-2.7-5.6-6.8
		c0-6,4.8-8.7,10.2-8.7v-0.7c0-3.2-0.8-5.4-3.8-5.4c-1.5,0-2.8,0.4-4,1.2l-0.8-2.7c1-0.7,3.2-1.6,5.6-1.6c4.8,0,6.8,3.1,6.8,8.5
		L137.9,149.1L137.9,149.1z M134.2,142.1c-2,0-6.6,0.4-6.6,5.6c0,3.2,1.6,4.3,2.9,4.3c1.7,0,3.1-1.2,3.5-3.6
		c0.1-0.4,0.2-0.9,0.2-1.4V142.1z"/>
	<path class="st31" d="M155,154c-0.8,0.5-2.3,0.9-4,0.9c-5.2,0-8.8-4.2-8.8-12.1c0-6.9,3.5-12.5,9.5-12.5c1.3,0,2.7,0.3,3.4,0.7
		l-0.7,3.1c-0.5-0.2-1.5-0.6-2.7-0.6c-3.9,0-5.5,4.6-5.5,9.3c0,5.6,2.1,9,5.6,9c1,0,1.9-0.2,2.7-0.6L155,154z"/>
	<path class="st31" d="M162,141.7L162,141.7c0.5-0.9,0.9-1.9,1.4-2.7l4.8-8.5h4.1l-6.3,10.1l6.9,13.9h-4.3l-5.2-11.3l-1.4,2.2v9.1
		h-3.8v-34.2h3.8V141.7z"/>
</g>
<path class="st32" d="M174.3,180c0,1.3-1.1,2.4-2.4,2.4h-149c-1.3,0-2.4-1.1-2.4-2.4v-17.3c0-1.3,1.1-2.4,2.4-2.4h149
	c1.3,0,2.4,1.1,2.4,2.4V180z"/>
<g>
	<path class="st33" d="M38.8,175.8c-0.3,0.2-0.9,0.3-1.6,0.3c-2.1,0-3.6-1.5-3.6-4.7c0-3.8,2.1-5,3.9-5c0.6,0,1.1,0.1,1.3,0.2
		l-0.3,0.9c-0.3-0.1-0.5-0.2-1.1-0.2c-1.2,0-2.5,1-2.5,3.9s1.2,3.9,2.6,3.9c0.5,0,0.9-0.1,1.1-0.2L38.8,175.8z"/>
	<path class="st33" d="M42.5,166.5h1.2v8.6h3v0.9h-4.3L42.5,166.5L42.5,166.5z"/>
	<path class="st33" d="M55.5,171.2c0,3.6-1.4,4.9-3.1,4.9c-1.8,0-3-1.7-3-4.9c0-3.1,1.3-4.9,3.2-4.9
		C54.4,166.4,55.5,168.1,55.5,171.2z M50.6,171.2c0,2,0.4,3.9,1.8,3.9s1.8-2.1,1.8-3.9c0-1.8-0.4-3.9-1.8-3.9
		C51.1,167.3,50.6,169.3,50.6,171.2z"/>
	<path class="st33" d="M60.6,166.5v6.4c0,1.7,0.7,2.3,1.5,2.3c0.9,0,1.5-0.6,1.5-2.3v-6.4h1.2v6.2c0,2.5-1.2,3.4-2.8,3.4
		s-2.7-0.9-2.7-3.3v-6.3L60.6,166.5L60.6,166.5z"/>
	<path class="st33" d="M69.2,166.6c0.5-0.1,1-0.2,1.7-0.2c1.1,0,2,0.3,2.5,0.7c0.8,0.6,1.5,1.9,1.5,3.9c0,2.2-0.6,3.4-1.3,4
		c-0.7,0.7-1.7,1-3,1c-0.5,0-1,0-1.4-0.1C69.2,175.9,69.2,166.6,69.2,166.6z M70.4,175.1c0.2,0,0.4,0,0.5,0c1.4,0,2.7-0.9,2.7-4.1
		c0-2.4-0.8-3.7-2.6-3.7c-0.2,0-0.4,0-0.6,0.1V175.1z"/>
	<path class="st33" d="M83.5,174.7c0.4,0.2,1,0.4,1.5,0.4c1.1,0,1.8-0.6,1.8-1.6c0-0.9-0.6-1.4-1.4-2c-0.9-0.5-2-1.4-2-2.6
		c0-1.4,1.1-2.5,2.9-2.5c0.7,0,1.3,0.2,1.5,0.4l-0.3,0.9c-0.3-0.2-0.7-0.3-1.3-0.3c-1.1,0-1.6,0.7-1.6,1.4c0,0.9,0.6,1.3,1.6,2
		c1.3,0.8,1.9,1.7,1.9,2.7c0,1.6-1.3,2.7-3,2.7c-0.7,0-1.5-0.2-1.8-0.4L83.5,174.7z"/>
	<path class="st33" d="M97.7,171.2c0,3.6-1.4,4.9-3.1,4.9c-1.8,0-3-1.7-3-4.9c0-3.1,1.3-4.9,3.2-4.9
		C96.6,166.4,97.7,168.1,97.7,171.2z M92.8,171.2c0,2,0.4,3.9,1.8,3.9s1.8-2.1,1.8-3.9c0-1.8-0.4-3.9-1.8-3.9
		C93.3,167.3,92.8,169.3,92.8,171.2z"/>
	<path class="st33" d="M101.6,166.5h4.1v0.9h-2.9v3.3h2.7v0.9h-2.7v4.3h-1.2V166.5z"/>
	<path class="st33" d="M110.9,167.5h-2v-1h5.2v1h-2v8.5h-1.2V167.5z"/>
	<path class="st33" d="M119.4,176l-2.1-9.5h1.3l0.9,4.6c0.2,1.2,0.4,2.3,0.5,3.4l0,0c0.1-1.2,0.4-2.2,0.7-3.4l1-4.6h1l1,4.5
		c0.2,1.1,0.5,2.2,0.6,3.5l0,0c0.2-1.4,0.4-2.4,0.6-3.5l0.9-4.5h1.2l-2.1,9.5h-1.2l-1-4.6c-0.2-1-0.4-2.1-0.6-3.1l0,0
		c-0.1,1.1-0.3,2.1-0.6,3.2l-1.1,4.6L119.4,176L119.4,176z"/>
	<path class="st33" d="M131.5,173.1l-0.7,2.9h-1.2l2.5-9.5h1.4l2.4,9.5h-1.2l-0.7-2.9H131.5z M133.8,172.3l-0.6-2.4
		c-0.2-0.7-0.3-1.5-0.4-2.2l0,0c-0.1,0.7-0.3,1.5-0.5,2.2l-0.6,2.4H133.8z"/>
	<path class="st33" d="M139.7,166.6c0.5-0.1,1.2-0.2,1.8-0.2c1.1,0,1.9,0.2,2.5,0.7c0.5,0.5,0.8,1.1,0.8,1.9c0,1.2-0.6,2-1.7,2.5
		l0,0c0.8,0.2,1.2,0.9,1.5,2.1c0.3,1.3,0.5,2.1,0.6,2.4h-1.3c-0.2-0.3-0.4-1.2-0.6-2.3c-0.2-1.3-0.7-1.8-1.8-1.8H141v4.1h-1.2v-9.4
		H139.7z M140.9,171h0.5c1.2,0,2-0.8,2-1.9c0-1.1-0.5-1.8-1.8-1.8c-0.3,0-0.5,0-0.7,0.1V171z"/>
	<path class="st33" d="M152.7,171.5H150v3.6h3.1v0.9h-4.3v-9.5h4.1v0.9H150v3.1h2.7L152.7,171.5L152.7,171.5z"/>
</g>
<g>
	<g>
		<path class="st34" d="M178.8,152.8c0,1.1-0.9,2-2,2s-2-0.9-2-2s0.9-2,2-2C177.9,150.9,178.8,151.7,178.8,152.8z M175.3,152.8
			c0,0.9,0.7,1.6,1.5,1.6c0.9,0,1.5-0.7,1.5-1.6c0-0.9-0.6-1.6-1.5-1.6C175.9,151.3,175.3,152,175.3,152.8z M176.5,153.9H176v-2
			c0.2,0,0.4-0.1,0.8-0.1c0.4,0,0.5,0.1,0.7,0.2c0.1,0.1,0.2,0.2,0.2,0.4s-0.2,0.4-0.4,0.5l0,0c0.2,0.1,0.3,0.2,0.3,0.5
			c0.1,0.3,0.1,0.4,0.1,0.5h-0.5c-0.1-0.1-0.1-0.2-0.2-0.5c0-0.2-0.2-0.3-0.4-0.3h-0.2L176.5,153.9L176.5,153.9z M176.5,152.8h0.2
			c0.3,0,0.5-0.1,0.5-0.3s-0.1-0.3-0.4-0.3c-0.1,0-0.2,0-0.3,0V152.8z"/>
	</g>
</g>
</svg>
