<?xml version="1.0" encoding="utf-8"?>
<!-- Generator: Adobe Illustrator 19.2.0, SVG Export Plug-In . SVG Version: 6.00 Build 0)  -->
<svg version="1.1" id="Layer_1" xmlns="http://www.w3.org/2000/svg" xmlns:xlink="http://www.w3.org/1999/xlink" x="0px" y="0px"
	 viewBox="0 0 448 448" style="enable-background:new 0 0 448 448;" xml:space="preserve">
<style type="text/css">
	.st0{opacity:0.3;fill:none;stroke:#449FDB;enable-background:new    ;}
	.st1{fill:none;stroke:#449FDB;}
	.st2{display:none;}
	.st3{display:inline;}
</style>
<g id="Grid_1_">
	<g id="icomoon-ignore_1_">
		<line class="st0" x1="16" y1="0" x2="16" y2="448"/>
		<line class="st1" x1="32" y1="0" x2="32" y2="448"/>
		<line class="st0" x1="48" y1="0" x2="48" y2="448"/>
		<line class="st1" x1="64" y1="0" x2="64" y2="448"/>
		<line class="st0" x1="80" y1="0" x2="80" y2="448"/>
		<line class="st1" x1="96" y1="0" x2="96" y2="448"/>
		<line class="st0" x1="112" y1="0" x2="112" y2="448"/>
		<line class="st1" x1="128" y1="0" x2="128" y2="448"/>
		<line class="st0" x1="144" y1="0" x2="144" y2="448"/>
		<line class="st1" x1="160" y1="0" x2="160" y2="448"/>
		<line class="st0" x1="176" y1="0" x2="176" y2="448"/>
		<line class="st1" x1="192" y1="0" x2="192" y2="448"/>
		<line class="st0" x1="208" y1="0" x2="208" y2="448"/>
		<line class="st1" x1="224" y1="0" x2="224" y2="448"/>
		<line class="st0" x1="240" y1="0" x2="240" y2="448"/>
		<line class="st1" x1="256" y1="0" x2="256" y2="448"/>
		<line class="st0" x1="272" y1="0" x2="272" y2="448"/>
		<line class="st1" x1="288" y1="0" x2="288" y2="448"/>
		<line class="st0" x1="304" y1="0" x2="304" y2="448"/>
		<line class="st1" x1="320" y1="0" x2="320" y2="448"/>
		<line class="st0" x1="336" y1="0" x2="336" y2="448"/>
		<line class="st1" x1="352" y1="0" x2="352" y2="448"/>
		<line class="st0" x1="368" y1="0" x2="368" y2="448"/>
		<line class="st1" x1="384" y1="0" x2="384" y2="448"/>
		<line class="st0" x1="400" y1="0" x2="400" y2="448"/>
		<line class="st1" x1="416" y1="0" x2="416" y2="448"/>
		<line class="st0" x1="432" y1="0" x2="432" y2="448"/>
		<line class="st0" x1="0" y1="16" x2="448" y2="16"/>
		<line class="st1" x1="0" y1="32" x2="448" y2="32"/>
		<line class="st0" x1="0" y1="48" x2="448" y2="48"/>
		<line class="st1" x1="0" y1="64" x2="448" y2="64"/>
		<line class="st0" x1="0" y1="80" x2="448" y2="80"/>
		<line class="st1" x1="0" y1="96" x2="448" y2="96"/>
		<line class="st0" x1="0" y1="112" x2="448" y2="112"/>
		<line class="st1" x1="0" y1="128" x2="448" y2="128"/>
		<line class="st0" x1="0" y1="144" x2="448" y2="144"/>
		<line class="st1" x1="0" y1="160" x2="448" y2="160"/>
		<line class="st0" x1="0" y1="176" x2="448" y2="176"/>
		<line class="st1" x1="0" y1="192" x2="448" y2="192"/>
		<line class="st0" x1="0" y1="208" x2="448" y2="208"/>
		<line class="st1" x1="0" y1="224" x2="448" y2="224"/>
		<line class="st0" x1="0" y1="240" x2="448" y2="240"/>
		<line class="st1" x1="0" y1="256" x2="448" y2="256"/>
		<line class="st0" x1="0" y1="272" x2="448" y2="272"/>
		<line class="st1" x1="0" y1="288" x2="448" y2="288"/>
		<line class="st0" x1="0" y1="304" x2="448" y2="304"/>
		<line class="st1" x1="0" y1="320" x2="448" y2="320"/>
		<line class="st0" x1="0" y1="336" x2="448" y2="336"/>
		<line class="st1" x1="0" y1="352" x2="448" y2="352"/>
		<line class="st0" x1="0" y1="368" x2="448" y2="368"/>
		<line class="st1" x1="0" y1="384" x2="448" y2="384"/>
		<line class="st0" x1="0" y1="400" x2="448" y2="400"/>
		<line class="st1" x1="0" y1="416" x2="448" y2="416"/>
		<line class="st0" x1="0" y1="432" x2="448" y2="432"/>
	</g>
</g>
<g id="Layer_2" class="st2">
	<g id="Grid" class="st3">
		<g id="icomoon-ignore">
			<line class="st0" x1="16" y1="0" x2="16" y2="448"/>
			<line class="st1" x1="32" y1="0" x2="32" y2="448"/>
			<line class="st0" x1="48" y1="0" x2="48" y2="448"/>
			<line class="st1" x1="64" y1="0" x2="64" y2="448"/>
			<line class="st0" x1="80" y1="0" x2="80" y2="448"/>
			<line class="st1" x1="96" y1="0" x2="96" y2="448"/>
			<line class="st0" x1="112" y1="0" x2="112" y2="448"/>
			<line class="st1" x1="128" y1="0" x2="128" y2="448"/>
			<line class="st0" x1="144" y1="0" x2="144" y2="448"/>
			<line class="st1" x1="160" y1="0" x2="160" y2="448"/>
			<line class="st0" x1="176" y1="0" x2="176" y2="448"/>
			<line class="st1" x1="192" y1="0" x2="192" y2="448"/>
			<line class="st0" x1="208" y1="0" x2="208" y2="448"/>
			<line class="st1" x1="224" y1="0" x2="224" y2="448"/>
			<line class="st0" x1="240" y1="0" x2="240" y2="448"/>
			<line class="st1" x1="256" y1="0" x2="256" y2="448"/>
			<line class="st0" x1="272" y1="0" x2="272" y2="448"/>
			<line class="st1" x1="288" y1="0" x2="288" y2="448"/>
			<line class="st0" x1="304" y1="0" x2="304" y2="448"/>
			<line class="st1" x1="320" y1="0" x2="320" y2="448"/>
			<line class="st0" x1="336" y1="0" x2="336" y2="448"/>
			<line class="st1" x1="352" y1="0" x2="352" y2="448"/>
			<line class="st0" x1="368" y1="0" x2="368" y2="448"/>
			<line class="st1" x1="384" y1="0" x2="384" y2="448"/>
			<line class="st0" x1="400" y1="0" x2="400" y2="448"/>
			<line class="st1" x1="416" y1="0" x2="416" y2="448"/>
			<line class="st0" x1="432" y1="0" x2="432" y2="448"/>
			<line class="st0" x1="0" y1="16" x2="448" y2="16"/>
			<line class="st1" x1="0" y1="32" x2="448" y2="32"/>
			<line class="st0" x1="0" y1="48" x2="448" y2="48"/>
			<line class="st1" x1="0" y1="64" x2="448" y2="64"/>
			<line class="st0" x1="0" y1="80" x2="448" y2="80"/>
			<line class="st1" x1="0" y1="96" x2="448" y2="96"/>
			<line class="st0" x1="0" y1="112" x2="448" y2="112"/>
			<line class="st1" x1="0" y1="128" x2="448" y2="128"/>
			<line class="st0" x1="0" y1="144" x2="448" y2="144"/>
			<line class="st1" x1="0" y1="160" x2="448" y2="160"/>
			<line class="st0" x1="0" y1="176" x2="448" y2="176"/>
			<line class="st1" x1="0" y1="192" x2="448" y2="192"/>
			<line class="st0" x1="0" y1="208" x2="448" y2="208"/>
			<line class="st1" x1="0" y1="224" x2="448" y2="224"/>
			<line class="st0" x1="0" y1="240" x2="448" y2="240"/>
			<line class="st1" x1="0" y1="256" x2="448" y2="256"/>
			<line class="st0" x1="0" y1="272" x2="448" y2="272"/>
			<line class="st1" x1="0" y1="288" x2="448" y2="288"/>
			<line class="st0" x1="0" y1="304" x2="448" y2="304"/>
			<line class="st1" x1="0" y1="320" x2="448" y2="320"/>
			<line class="st0" x1="0" y1="336" x2="448" y2="336"/>
			<line class="st1" x1="0" y1="352" x2="448" y2="352"/>
			<line class="st0" x1="0" y1="368" x2="448" y2="368"/>
			<line class="st1" x1="0" y1="384" x2="448" y2="384"/>
			<line class="st0" x1="0" y1="400" x2="448" y2="400"/>
			<line class="st1" x1="0" y1="416" x2="448" y2="416"/>
			<line class="st0" x1="0" y1="432" x2="448" y2="432"/>
		</g>
	</g>
</g>
<g>
	<path d="M417.6,111.8c-20.1-34.3-47.2-61.4-81.4-81.4s-71.6-30-112.2-30s-78,10-112.2,30c-34.2,19.9-61.4,47.1-81.3,81.3
		c-20,34.2-30,71.7-30,112.2s9.9,78,29.9,112.3c20,34.3,47.2,61.4,81.4,81.4s71.6,30,112.2,30s78-10,112.2-30
		c34.3-20,61.4-47.2,81.4-81.4s30-71.6,30-112.2C447.6,183.4,437.6,146,417.6,111.8z M354,305.4c0,13.1-5.1,25.5-14.4,34.8
		c-9.2,9.3-21.6,14.4-34.8,14.4H143.3c-13.2,0-25.5-5.1-34.8-14.4c-9.3-9.2-14.4-21.6-14.4-34.8v-91.5c0-13.1,5.1-25.5,14.4-34.8
		c3.2-3.2,6.7-5.8,10.5-8v-2.9c0-28.3,10.7-54,30.9-74.2c20.2-20.2,45.9-30.9,74.2-30.9s54,10.7,74.1,30.9
		c20.2,20.2,30.9,45.9,30.9,74.2v2.9c3.8,2.2,7.3,4.8,10.5,8c9.3,9.3,14.4,21.6,14.4,34.8V305.4z"/>
	<path d="M304.9,198.7h-9.6v-30.5c0-19.5-7-36.2-21-50.2s-30.7-21-50.2-21s-36.2,7-50.2,21s-21,30.7-21,50.2v30.5h-9.6
		c-4.2,0-7.8,1.5-10.8,4.4c-3,3-4.4,6.6-4.4,10.8v91.5c0,4.2,1.5,7.8,4.4,10.8c3,3,6.6,4.4,10.8,4.4h161.5c4.2,0,7.8-1.5,10.8-4.4
		c3-3,4.4-6.6,4.4-10.8v-91.5c0-4.2-1.5-7.8-4.4-10.8C312.7,200.2,309.1,198.7,304.9,198.7z M183.5,198.7v-30.5
		c0-11.2,4-20.8,11.9-28.7c7.9-7.9,17.5-11.9,28.7-11.9c11.2,0,20.8,4,28.7,11.9c7.9,7.9,11.9,17.5,11.9,28.7v30.5H183.5z"/>
</g>
</svg>
