<?xml version="1.0" encoding="utf-8"?>
<!-- Generator: Adobe Illustrator 19.2.0, SVG Export Plug-In . SVG Version: 6.00 Build 0)  -->
<svg version="1.1"
	 id="svg4242" xmlns:cc="http://creativecommons.org/ns#" xmlns:dc="http://purl.org/dc/elements/1.1/" xmlns:rdf="http://www.w3.org/1999/02/22-rdf-syntax-ns#"
	 xmlns="http://www.w3.org/2000/svg" xmlns:xlink="http://www.w3.org/1999/xlink" x="0px" y="0px" viewBox="0 0 200 199.7"
	 style="enable-background:new 0 0 200 199.7;" xml:space="preserve">
<style type="text/css">
	.st0{fill:#EBA546;}
	.st1{fill:#322D6B;}
	.st2{fill:#7C64A5;}
</style>
<g>
	<path class="st0" d="M86.2,143.7c0,0-14,10.4-23.9,7.6c0,0,48.6,48.6,99.1,1.9c0,0,16.9-19.6,16.1-34l-6.6-1.9
		c0,0-9.3,45.9-57.9,40.2C113.2,157.8,100.8,154.9,86.2,143.7L86.2,143.7z"/>
	<path class="st1" d="M71.5,79c0,0-1.5-17.5,6.1-24.3c0,0-66.8,16.1-53.3,83.7c0,0,8,24.7,20.5,31.5l4.9-4.7c0,0-34.4-31.9-4.2-70.4
		C45.3,94.7,54.2,85.6,71.5,79L71.5,79z"/>
	<path class="st2" d="M135.4,97.2c0,0,16.1,6.8,18.6,16.7c0,0,17.3-66.4-48.6-86.4c0,0-25.6-4.6-37.4,3.2l1.9,6.6
		c0,0,44.4-15.4,64.2,29.4C133.9,66.8,137.7,78.8,135.4,97.2L135.4,97.2z"/>
	<path class="st2" d="M110.5,73c-5.7,6.5-15.6,7-22,1.3c-6.5-5.7-7-15.6-1.3-22c5.7-6.5,15.6-7,22-1.3
		C115.6,56.7,116.1,66.6,110.5,73L110.5,73z"/>
	<path class="st1" d="M70.6,137.5c-5.7,6.5-15.6,7-22,1.3c-6.5-5.7-7-15.6-1.1-22c5.7-6.5,15.6-7,22-1.1
		C75.7,121.2,76.3,131.1,70.6,137.5L70.6,137.5z"/>
	<path class="st0" d="M144.6,139.5c-5.7,6.5-15.6,7-22,1.3c-6.5-5.7-7-15.6-1.3-22c5.7-6.5,15.6-7,22-1.3S150.3,133,144.6,139.5
		L144.6,139.5z"/>
</g>
</svg>
