<?xml version="1.0" encoding="utf-8"?>
<!-- Generator: Adobe Illustrator 19.2.0, SVG Export Plug-In . SVG Version: 6.00 Build 0)  -->
<svg version="1.1" id="logo" xmlns="http://www.w3.org/2000/svg" xmlns:xlink="http://www.w3.org/1999/xlink" x="0px" y="0px"
	 viewBox="0 0 200 200" style="enable-background:new 0 0 200 200;" xml:space="preserve">
<style type="text/css">
	.st0{fill:#FFFFFF;}
	.st1{fill:#CC0000;}
</style>
<g id="logo_1_">
	<g id="white">
		<path class="st0" d="M61.7,116.3c-1.2-0.3-2.4-0.4-3.6-0.4c-2.1,0-4.1,0.4-5.5,1c-0.2,0.1-0.3,0.2-0.3,0.4c0,0.1,0,0.1,0,0.2
			c0.2,0.5-0.1,1-1.5,1.3c-2,0.4-3.3,2.6-4.1,3.3c-0.9,0.8-3.3,1.3-2.9,0.8c0.3-0.4,1.4-1.6,2.1-2.9c0.6-1.2,1.1-1.5,1.9-2.6
			c0.2-0.3,1.1-1.5,1.3-2.4c0.3-0.9,0.2-2,0.3-2.4c0.2-0.7,0.8-2.1,0.8-2.9c0-0.5-1.9,0.6-2.8,0.6s-1.8-0.5-2.6-0.6
			c-1,0-1.7,0.8-2.6,0.6c-0.5-0.1-1-0.5-1.9-0.6c-1.3,0-2.9,0.7-5.9,0.6c-2.9-0.1-5.6-3.7-6-4.3c-0.4-0.7-1-0.7-1.5-0.1
			c-0.6,0.5-1.3,0.1-1.5-0.2c-0.4-0.7-1.4-2.6-3-3c-2.2-0.6-3.3,1.2-3.2,2.6c0.1,1.4,1.1,1.8,1.5,2.6c0.4,0.8,0.7,1.3,1.5,1.6
			c0.6,0.2,0.8,0.6,0.6,1.1c-0.2,0.4-0.7,0.5-1.1,0.5c-0.8,0-1.4-0.2-1.9-0.5c-0.5-0.3-0.9-0.8-1.3-1.5c-0.5-0.8-1.3-1.2-2.2-1.2
			c-0.4,0-0.9,0.1-1.2,0.3c-1.4,0.8-3.2,1.2-5,1.2l-2.1,0c4,11.9,15.2,20.4,28.5,20.4C47.1,130,56.4,124.6,61.7,116.3z"/>
	</g>
	<g id="black">
		<g>
			<path d="M66.2,114.7h0.3l0.4,0.7h0.3l-0.4-0.7c0.2,0,0.4-0.1,0.4-0.4c0-0.3-0.2-0.4-0.5-0.4H66v1.5h0.2V114.7z M66.2,114.5V114
				h0.3c0.2,0,0.3,0,0.3,0.2c0,0.2-0.2,0.3-0.4,0.3C66.5,114.5,66.2,114.5,66.2,114.5z"/>
			<path d="M68,114.6c0,0.8-0.7,1.5-1.5,1.5s-1.5-0.7-1.5-1.5c0-0.8,0.7-1.5,1.5-1.5S68,113.8,68,114.6z M66.5,113.4
				c-0.7,0-1.2,0.6-1.2,1.3c0,0.7,0.6,1.2,1.2,1.2c0.7,0,1.2-0.6,1.2-1.2C67.8,113.9,67.2,113.4,66.5,113.4z"/>
		</g>
		<g>
			<path d="M61.7,116.3c-1.2-0.3-2.4-0.4-3.6-0.4c-2.1,0-4.1,0.4-5.5,1c-0.2,0.1-0.3,0.2-0.3,0.4c0,0.1,0,0.1,0,0.2
				c0.2,0.5-0.1,1-1.5,1.3c-2,0.4-3.3,2.6-4.1,3.3c-0.9,0.8-3.3,1.3-2.9,0.8c0.3-0.4,1.4-1.6,2.1-2.9c0.6-1.2,1.1-1.5,1.9-2.6
				c0.2-0.3,1.1-1.5,1.3-2.4c0.3-0.9,0.2-2,0.3-2.4c0.2-0.7,0.8-2.1,0.8-2.9c0-0.5-1.9,0.6-2.8,0.6s-1.8-0.5-2.6-0.6
				c-1,0-1.7,0.8-2.6,0.6c-0.5-0.1-1-0.5-1.9-0.6c-1.3,0-2.9,0.7-5.9,0.6c-2.9-0.1-5.6-3.7-6-4.3c-0.4-0.7-1-0.7-1.5-0.1
				c-0.6,0.5-1.3,0.1-1.5-0.2c-0.4-0.7-1.4-2.6-3-3c-2.2-0.6-3.3,1.2-3.2,2.6c0.1,1.4,1.1,1.8,1.5,2.6c0.4,0.8,0.7,1.3,1.5,1.6
				c0.6,0.2,0.8,0.6,0.6,1.1c-0.2,0.4-0.7,0.5-1.1,0.5c-0.8,0-1.4-0.2-1.9-0.5c-0.5-0.3-0.9-0.8-1.3-1.5c-0.5-0.8-1.3-1.2-2.2-1.2
				c-0.4,0-0.9,0.1-1.2,0.3c-1.4,0.8-3.2,1.2-5,1.2H8c-1-3-1.6-6.2-1.6-9.6c0-16.6,13.4-30,30-30s30,13.4,30,30
				C66.5,106,64.8,111.6,61.7,116.3z"/>
		</g>
		<path d="M81.8,101.9c0-2.8-0.1-4.8-0.2-6.6h4.5l0.2,3.9h0.1c1-2.9,3.4-4.4,5.6-4.4c0.5,0,0.8,0,1.2,0.1v4.9
			c-0.5-0.1-0.9-0.1-1.6-0.1c-2.5,0-4.2,1.6-4.7,3.9c-0.1,0.5-0.1,1-0.1,1.6v10.7h-5.2L81.8,101.9z"/>
		<path d="M99.6,107c0.1,3.7,3,5.4,6.4,5.4c2.4,0,4.1-0.4,5.7-1l0.8,3.6c-1.8,0.7-4.2,1.3-7.2,1.3c-6.7,0-10.6-4.1-10.6-10.4
			c0-5.7,3.4-11.1,10.1-11.1c6.7,0,8.9,5.5,8.9,10c0,1-0.1,1.7-0.2,2.2L99.6,107z M108.7,103.3c0-1.9-0.8-5-4.3-5
			c-3.2,0-4.5,2.9-4.8,5H108.7z"/>
		<path d="M130.8,106.9c0,0.5,0,1.1-0.2,1.5c-0.5,2.3-2.4,3.7-4.5,3.7c-3.3,0-5.1-2.8-5.1-6.5c0-3.8,1.9-6.8,5.2-6.8
			c2.3,0,4,1.6,4.5,3.7c0.1,0.4,0.1,0.9,0.1,1.4V106.9z M136,87.4l-5.2-1.5v11.6h-0.1c-0.9-1.5-2.9-2.7-5.8-2.7
			c-4.9,0-9.3,4.1-9.2,11c0,6.3,3.9,10.5,8.8,10.5c3,0,5.5-1.4,6.7-3.7h0.1l0.2,3.3h4.6c-0.1-1.4-0.2-3.7-0.2-5.8L136,87.4L136,87.4
			z"/>
		<path d="M149.8,94.8c-1.6,0-3,0.5-4.1,1.2c-1.2,0.7-2.2,1.8-2.8,3h-0.1v-9.6l-2-0.6v27.1h2v-12.6c0-0.8,0.1-1.4,0.3-2
			c0.9-2.6,3.3-4.7,6.2-4.7c4.2,0,5.7,3.4,5.7,7.1v12.2h2v-12.4C156.9,95.8,151.7,94.8,149.8,94.8z"/>
		<path d="M175.2,111c0,1.6,0.1,3.3,0.3,4.9h-1.9l-0.3-3h-0.1c-1,1.6-3.3,3.4-6.6,3.4c-4.1,0-6.1-2.9-6.1-5.7
			c0-4.8,4.2-7.6,12.6-7.5v-0.6c0-2-0.4-6.1-5.3-6.1c-1.8,0-3.7,0.5-5.2,1.5l-0.6-1.5c1.9-1.3,4.2-1.8,6-1.8c5.9,0,7.1,4.5,7.1,8.1
			L175.2,111L175.2,111z M173.1,104.9c-4.5-0.1-10.4,0.6-10.4,5.5c0,3,2,4.3,4.1,4.3c3.4,0,5.4-2.1,6.1-4.1c0.1-0.4,0.2-0.9,0.2-1.2
			L173.1,104.9L173.1,104.9z"/>
		<path d="M183.3,90.7v4.5h5.9v1.7h-5.9v13.4c0,2.6,0.8,4.3,3,4.3c1.1,0,1.8-0.1,2.3-0.3l0.2,1.6c-0.7,0.3-1.6,0.5-2.8,0.5
			c-1.5,0-2.7-0.5-3.6-1.5c-0.9-1.1-1.3-2.8-1.3-4.9v-13h-3.5v-1.7h3.5v-3.8L183.3,90.7z"/>
		<g>
			<path d="M191.7,114.8h0.3l0.4,0.7h0.3l-0.4-0.7c0.2,0,0.4-0.1,0.4-0.4c0-0.3-0.2-0.4-0.5-0.4h-0.6v1.5h0.2L191.7,114.8
				L191.7,114.8z M191.7,114.6v-0.5h0.3c0.2,0,0.3,0,0.3,0.2c0,0.2-0.2,0.3-0.4,0.3C192,114.6,191.7,114.6,191.7,114.6z"/>
			<path d="M193.5,114.7c0,0.8-0.7,1.5-1.5,1.5c-0.8,0-1.5-0.7-1.5-1.5c0-0.8,0.7-1.5,1.5-1.5C192.8,113.1,193.5,113.8,193.5,114.7z
				 M192,113.4c-0.7,0-1.2,0.6-1.2,1.3c0,0.7,0.6,1.2,1.2,1.2c0.7,0,1.2-0.6,1.2-1.2C193.3,114,192.7,113.4,192,113.4z"/>
		</g>
		<path d="M43.1,113.6c0.2,0.1,0.4,0.7,0.1,1.3c-0.2,0.3-0.4,0.6-0.7,0.9c-0.4,0.3-1.2,0.7-2.4,0c-0.6-0.4-0.6-0.5-1.5-0.4
			c-0.6,0.1-0.8-0.5-0.6-1c0.2-0.5,1.1-0.9,2.2-0.3c0.5,0.3,1.3,0.9,1.9,0.4c0.3-0.2,0.4-0.4,0.8-0.8C43,113.6,43,113.5,43.1,113.6
			C43.1,113.5,43.1,113.6,43.1,113.6z"/>
	</g>
	<path id="red" class="st1" d="M34.2,84.3c-3.5,0.3-3.8,0.6-4.5,1.3c-0.9,1-2.1-1.3-2.1-1.3c-0.7-0.2-1.6-1.3-1.1-2.4
		c0.5-1.1,1.3-0.8,1.6-0.4c0.3,0.4,1,1.1,1.9,1.1c0.9,0,2-0.2,3.4-0.2c1.5,0,2.5,0.6,2.5,1C36,83.8,35.8,84.2,34.2,84.3z M37.8,78.5
		C37.8,78.5,37.8,78.5,37.8,78.5c-0.1,0-0.1,0-0.1-0.1c0,0,0-0.1,0.1-0.1c0.7-0.4,1.7-0.6,2.8-0.8c0.3,0,0.7-0.1,1-0.1
		c0.1,0,0.1,0,0.2,0c1.9,0,3.5,0.8,3.4,1.7c0,0.9-1.6,1.6-3.5,1.6c-0.6,0-1.2-0.1-1.7-0.3c-0.1,0-0.1-0.1-0.1-0.1
		c0-0.1,0-0.1,0.1-0.1c1.2-0.3,2-0.7,2-1.2c-0.1-0.6-1.6-0.9-3.5-0.7C38.2,78.5,38,78.5,37.8,78.5z M53.4,92c-0.3,1-0.7,2.3-2.6,3.2
		c-0.3,0.1-0.4-0.1-0.3-0.3c0.7-1.2,0.8-1.5,1-2c0.3-0.7,0.4-1.7-0.1-3.8c-1.1-4.1-3.5-9.5-5.2-11.3c-1.7-1.7-4.6-2.2-7.4-1.5
		c-1,0.3-2.9,1.3-6.6,0.5c-6.3-1.4-7.2,1.7-7.5,3.1c-0.4,1.4-1.2,5.2-1.2,5.2c-0.3,1.6-0.7,4.3,9.1,6.2c4.5,0.9,4.8,2,5,2.9
		c0.4,1.5,0.9,2.4,1.6,2.8c0.6,0.4,0,0.8-0.7,0.9c-1.9,0.2-9.1-1.8-13.3-4.2c-3.4-2.1-3.5-4-2.7-5.6c-5.2-0.6-9.1,0.5-9.8,3
		c-1.2,4.2,9.3,11.5,21.3,15.1c12.6,3.8,25.5,1.1,26.9-6.8C61.6,95.8,58.5,93.2,53.4,92z"/>
</g>
</svg>
