<?xml version="1.0" encoding="utf-8"?>
<!-- Generator: Adobe Illustrator 19.2.0, SVG Export Plug-In . SVG Version: 6.00 Build 0)  -->
<svg version="1.1" id="logo" xmlns="http://www.w3.org/2000/svg" xmlns:xlink="http://www.w3.org/1999/xlink" x="0px" y="0px"
	 viewBox="0 0 200 200" style="enable-background:new 0 0 200 200;" xml:space="preserve">
<g>
	<path d="M25.8,93.4l-2.7-5.7h-1.9v5.7h-4.6V76.6h7.5c1,0,1.9,0.1,2.7,0.3s1.5,0.5,2.1,0.9s1,1,1.3,1.7c0.3,0.7,0.5,1.5,0.5,2.5
		c0,1.3-0.3,2.3-0.8,3.1c-0.6,0.9-1.3,1.5-2.3,1.9l3.4,6.4C31,93.4,25.8,93.4,25.8,93.4z M25.6,80.9c-0.3-0.3-0.8-0.5-1.6-0.5h-2.8
		v3.7h2.7c0.8,0,1.3-0.2,1.6-0.5c0.3-0.3,0.5-0.8,0.5-1.4C26,81.7,25.9,81.2,25.6,80.9z"/>
	<path d="M34.5,93.4V76.6h12.9v3.9h-8.3v2.3h5v3.8h-5v2.9h8.4v3.9C47.5,93.4,34.5,93.4,34.5,93.4z"/>
	<path d="M65.2,88.9c-0.4,1.1-1,2-1.7,2.6s-1.7,1.1-2.8,1.4s-2.4,0.4-3.9,0.4h-5.4V76.6h5.9c1.3,0,2.5,0.1,3.6,0.4s2,0.7,2.7,1.4
		c0.7,0.6,1.3,1.5,1.7,2.6c0.4,1.1,0.6,2.4,0.6,4C65.9,86.6,65.6,87.8,65.2,88.9z M60.8,83c-0.1-0.6-0.4-1-0.7-1.4
		c-0.3-0.4-0.7-0.6-1.2-0.8s-1.1-0.2-1.8-0.2h-1.2v8.8h1c0.7,0,1.3-0.1,1.8-0.2c0.5-0.2,0.9-0.4,1.3-0.7c0.3-0.3,0.6-0.8,0.7-1.4
		s0.2-1.3,0.2-2.1C61,84.2,60.9,83.5,60.8,83z"/>
	<path d="M87.9,93.4v-6.6h-5.2v6.6h-4.8V76.6h4.8v6.1h5.2v-6.1h4.8v16.8H87.9z"/>
	<path d="M107.6,93.4l-0.9-3h-5l-0.9,3h-5l6.1-16.8h4.7l6.1,16.8H107.6z M105.3,85.6c-0.1-0.5-0.3-1-0.4-1.4
		c-0.1-0.4-0.2-0.8-0.3-1.1c-0.1-0.3-0.2-0.6-0.2-0.9c-0.1-0.3-0.1-0.5-0.2-0.8c0,0.3-0.1,0.6-0.2,0.8c-0.1,0.3-0.1,0.6-0.2,0.9
		c-0.1,0.3-0.2,0.7-0.3,1.1c-0.1,0.4-0.2,0.9-0.4,1.4l-0.3,1.1h2.8L105.3,85.6z"/>
	<path d="M122.2,80.7v12.7h-4.7V80.7h-4.7v-4.1h14.1v4.1H122.2z"/>
	<path d="M133.1,79.5c-0.1,0.3-0.3,0.5-0.5,0.7s-0.4,0.3-0.7,0.5c-0.3,0.1-0.5,0.2-0.9,0.2c-0.3,0-0.6-0.1-0.9-0.2
		c-0.3-0.1-0.5-0.3-0.7-0.5s-0.3-0.4-0.5-0.7c-0.1-0.3-0.2-0.5-0.2-0.9c0-0.4,0.1-0.6,0.2-0.9s0.3-0.5,0.5-0.7s0.4-0.3,0.7-0.5
		c0.3-0.1,0.5-0.2,0.9-0.2c0.3,0,0.6,0.1,0.9,0.2c0.3,0.1,0.5,0.3,0.7,0.5s0.3,0.4,0.5,0.7c0.1,0.3,0.2,0.5,0.2,0.9
		C133.3,79,133.2,79.2,133.1,79.5z M132.8,77.9c-0.1-0.2-0.2-0.4-0.4-0.6s-0.4-0.3-0.6-0.4c-0.2-0.1-0.5-0.1-0.7-0.1
		c-0.3,0-0.5,0-0.7,0.1s-0.4,0.2-0.6,0.4s-0.3,0.4-0.4,0.6c-0.1,0.2-0.1,0.5-0.1,0.7c0,0.3,0,0.5,0.1,0.7s0.2,0.4,0.4,0.6
		c0.2,0.2,0.4,0.3,0.6,0.4c0.2,0.1,0.5,0.1,0.7,0.1c0.3,0,0.5,0,0.7-0.1s0.4-0.2,0.6-0.4c0.2-0.2,0.3-0.4,0.4-0.6
		c0.1-0.2,0.1-0.5,0.1-0.7C132.9,78.4,132.9,78.2,132.8,77.9z M132,78.6c-0.1,0.1-0.2,0.2-0.4,0.2l0.5,1h-0.5l-0.5-0.9h-0.5v0.9
		h-0.4v-2.4h1c0.1,0,0.2,0,0.3,0s0.2,0.1,0.2,0.1s0.1,0.1,0.2,0.2c0,0.1,0.1,0.2,0.1,0.3C132.1,78.3,132.1,78.5,132,78.6z
		 M131.6,77.9c-0.1-0.1-0.2-0.1-0.3-0.1h-0.6v0.7h0.6c0.1,0,0.2,0,0.3-0.1c0.1-0.1,0.1-0.1,0.1-0.3C131.7,78,131.7,78,131.6,77.9z"
		/>
	<path d="M31.5,119.5c-0.4,0.9-0.9,1.6-1.6,2.2c-0.7,0.6-1.6,1.1-2.6,1.5c-1,0.4-2.2,0.5-3.5,0.5c-1.7,0-3.3-0.3-4.8-1
		s-2.7-1.5-3.7-2.5l1.9-2.1c1,0.9,2,1.6,3.1,2.2c1.1,0.6,2.3,0.8,3.6,0.8c1.7,0,3-0.4,4-1.2c1-0.8,1.5-1.8,1.5-3.2
		c0-0.6-0.1-1.1-0.3-1.6s-0.5-0.9-1-1.3c-0.5-0.4-1.1-0.8-1.9-1.2c-0.8-0.4-1.7-0.8-2.9-1.2c-1.4-0.5-2.5-1-3.4-1.5s-1.7-1-2.2-1.6
		c-0.6-0.6-1-1.2-1.2-1.9c-0.3-0.7-0.4-1.5-0.4-2.4c0-1,0.2-1.9,0.6-2.7c0.4-0.8,0.9-1.5,1.6-2c0.7-0.6,1.5-1,2.5-1.3
		c1-0.3,2-0.4,3.2-0.4c1.7,0,3.1,0.2,4.3,0.7s2.3,1.1,3.4,2l-1.8,2.2c-0.9-0.8-1.8-1.3-2.8-1.7c-0.9-0.4-2-0.6-3.3-0.6
		c-0.9,0-1.6,0.1-2.2,0.3c-0.6,0.2-1.1,0.5-1.5,0.8s-0.7,0.7-0.9,1.2c-0.2,0.4-0.3,0.9-0.3,1.4s0.1,1,0.2,1.4
		c0.1,0.4,0.4,0.8,0.9,1.2s1,0.8,1.8,1.2s1.8,0.8,3.1,1.3c1.4,0.5,2.6,1,3.5,1.5s1.7,1.1,2.2,1.7c0.6,0.6,1,1.3,1.2,2
		s0.4,1.5,0.4,2.5C32.1,117.8,31.9,118.7,31.5,119.5z"/>
	<path d="M53.4,123.4l-2.2-6.4H40.8l-2.2,6.4h-2.9l8.7-25.2h3.2l8.7,25.2H53.4z M47.6,106.2c-0.1-0.4-0.3-0.9-0.5-1.3
		c-0.2-0.5-0.3-0.9-0.4-1.4c-0.1-0.4-0.3-0.9-0.4-1.3s-0.2-0.7-0.3-1c-0.1,0.3-0.2,0.6-0.3,1c-0.1,0.4-0.2,0.8-0.4,1.3
		c-0.1,0.5-0.3,0.9-0.5,1.4c-0.2,0.5-0.3,1-0.5,1.4l-2.8,8.2h8.7L47.6,106.2z"/>
	<path d="M67.5,100.8v22.6h-2.8v-22.6h-7.4v-2.6h17.6v2.6H67.5z"/>
	<path d="M80,123.4V98.2h15.2v2.6H82.8v7.9H90v2.6h-7.2v9.6h13v2.6L80,123.4L80,123.4z"/>
	<path d="M101.1,123.4V98.2h2.8v22.6h12.5v2.6C116.4,123.4,101.1,123.4,101.1,123.4z"/>
	<path d="M121.8,123.4V98.2h2.8v22.6h12.5v2.6C137.1,123.4,121.8,123.4,121.8,123.4z"/>
	<path d="M142.7,123.4V98.2h2.8v25.2H142.7z"/>
	<path d="M161,100.8v22.6h-2.8v-22.6h-7.4v-2.6h17.6v2.6H161z"/>
	<path d="M173.5,123.4V98.2h15.2v2.6h-12.4v7.9h7.2v2.6h-7.2v9.6h13v2.6L173.5,123.4L173.5,123.4z"/>
</g>
</svg>
