<?xml version="1.0" encoding="utf-8"?>
<!-- Generator: Adobe Illustrator 19.2.0, SVG Export Plug-In . SVG Version: 6.00 Build 0)  -->
<svg version="1.1" id="logo" xmlns="http://www.w3.org/2000/svg" xmlns:xlink="http://www.w3.org/1999/xlink" x="0px" y="0px"
	 viewBox="0 0 200 200" style="enable-background:new 0 0 200 200;" xml:space="preserve">
<g>
	<path d="M23.1,92.3L20,85.7h-2.2v6.6h-5.3V72.8h8.7c1.2,0,2.2,0.1,3.1,0.3c0.9,0.2,1.7,0.6,2.4,1c0.7,0.5,1.2,1.2,1.5,2
		c0.3,0.8,0.6,1.7,0.6,2.9c0,1.5-0.3,2.7-0.9,3.6c-0.7,1-1.5,1.7-2.7,2.2l3.9,7.4C29.2,92.3,23.1,92.3,23.1,92.3z M22.9,77.8
		c-0.3-0.3-0.9-0.6-1.9-0.6h-3.2v4.3h3.1c0.9,0,1.5-0.2,1.9-0.6c0.3-0.3,0.6-0.9,0.6-1.6C23.4,78.7,23.3,78.1,22.9,77.8z"/>
	<path d="M33.2,92.3V72.8h15v4.5h-9.6V80h5.8v4.4h-5.8v3.4h9.7v4.5C48.3,92.3,33.2,92.3,33.2,92.3z"/>
	<path d="M68.8,87.1c-0.5,1.3-1.2,2.3-2,3c-0.8,0.7-2,1.3-3.2,1.6c-1.3,0.3-2.8,0.5-4.5,0.5h-6.3V72.8h6.8c1.5,0,2.9,0.1,4.2,0.5
		c1.3,0.3,2.3,0.8,3.1,1.6c0.8,0.7,1.5,1.7,2,3c0.5,1.3,0.7,2.8,0.7,4.6S69.3,85.8,68.8,87.1z M63.7,80.2c-0.1-0.7-0.5-1.2-0.8-1.6
		c-0.3-0.5-0.8-0.7-1.4-0.9c-0.6-0.2-1.3-0.2-2.1-0.2H58v10.2h1.2c0.8,0,1.5-0.1,2.1-0.2c0.6-0.2,1-0.5,1.5-0.8
		c0.3-0.3,0.7-0.9,0.8-1.6s0.2-1.5,0.2-2.4C63.9,81.6,63.8,80.8,63.7,80.2z"/>
	<path d="M95.1,92.3v-7.7h-6v7.7h-5.6V72.8h5.6v7.1h6v-7.1h5.6v19.5H95.1z"/>
	<path d="M118,92.3l-1-3.5h-5.8l-1,3.5h-5.8l7.1-19.5h5.4l7.1,19.5H118z M115.3,83.2c-0.1-0.6-0.3-1.2-0.5-1.6
		c-0.1-0.5-0.2-0.9-0.3-1.3c-0.1-0.3-0.2-0.7-0.2-1c-0.1-0.3-0.1-0.6-0.2-0.9c0,0.3-0.1,0.7-0.2,0.9c-0.1,0.3-0.1,0.7-0.2,1
		c-0.1,0.3-0.2,0.8-0.3,1.3c-0.1,0.5-0.2,1-0.5,1.6l-0.3,1.3h3.2L115.3,83.2z"/>
	<path d="M134.9,77.6v14.7h-5.4V77.6H124v-4.8h16.3v4.8H134.9z"/>
	<path d="M147.5,76.2c-0.1,0.3-0.3,0.6-0.6,0.8c-0.2,0.2-0.5,0.3-0.8,0.6c-0.3,0.1-0.6,0.2-1,0.2c-0.3,0-0.7-0.1-1-0.2
		s-0.6-0.3-0.8-0.6c-0.2-0.2-0.3-0.5-0.6-0.8c-0.1-0.3-0.2-0.6-0.2-1c0-0.5,0.1-0.7,0.2-1c0.1-0.3,0.3-0.6,0.6-0.8
		c0.2-0.2,0.5-0.3,0.8-0.6c0.3-0.1,0.6-0.2,1-0.2c0.3,0,0.7,0.1,1,0.2c0.3,0.1,0.6,0.3,0.8,0.6c0.2,0.2,0.3,0.5,0.6,0.8
		c0.1,0.3,0.2,0.6,0.2,1C147.8,75.6,147.6,75.8,147.5,76.2z M147.2,74.3c-0.1-0.2-0.2-0.5-0.5-0.7c-0.2-0.2-0.5-0.3-0.7-0.5
		s-0.6-0.1-0.8-0.1c-0.3,0-0.6,0-0.8,0.1c-0.2,0.1-0.5,0.2-0.7,0.5s-0.3,0.5-0.5,0.7c-0.1,0.2-0.1,0.6-0.1,0.8c0,0.3,0,0.6,0.1,0.8
		s0.2,0.5,0.5,0.7c0.2,0.2,0.5,0.3,0.7,0.5c0.2,0.1,0.6,0.1,0.8,0.1c0.3,0,0.6,0,0.8-0.1c0.2-0.1,0.5-0.2,0.7-0.5
		c0.2-0.2,0.3-0.5,0.5-0.7c0.1-0.2,0.1-0.6,0.1-0.8C147.3,74.9,147.3,74.7,147.2,74.3z M146.3,75.1c-0.1,0.1-0.2,0.2-0.5,0.2
		l0.6,1.2h-0.6l-0.6-1h-0.6v1h-0.5v-2.8h1.2c0.1,0,0.2,0,0.3,0s0.2,0.1,0.2,0.1s0.1,0.1,0.2,0.2c0,0.1,0.1,0.2,0.1,0.3
		C146.4,74.8,146.4,75,146.3,75.1z M145.8,74.3c-0.1-0.1-0.2-0.1-0.3-0.1h-0.7V75h0.7c0.1,0,0.2,0,0.3-0.1c0.1-0.1,0.1-0.1,0.1-0.3
		C145.9,74.4,145.9,74.4,145.8,74.3z"/>
	<path d="M29.7,122.5c-0.5,1-1,1.9-1.9,2.6c-0.8,0.7-1.9,1.3-3,1.7c-1.2,0.5-2.6,0.6-4.1,0.6c-2,0-3.8-0.3-5.6-1.2s-3.1-1.7-4.3-2.9
		l2.2-2.4c1.2,1,2.3,1.9,3.6,2.6c1.3,0.7,2.7,0.9,4.2,0.9c2,0,3.5-0.5,4.6-1.4c1.2-0.9,1.7-2.1,1.7-3.7c0-0.7-0.1-1.3-0.3-1.9
		c-0.2-0.6-0.6-1-1.2-1.5s-1.3-0.9-2.2-1.4c-0.9-0.5-2-0.9-3.4-1.4c-1.6-0.6-2.9-1.2-3.9-1.7c-1-0.6-2-1.2-2.6-1.9
		c-0.7-0.7-1.2-1.4-1.4-2.2c-0.3-0.8-0.5-1.7-0.5-2.8c0-1.2,0.2-2.2,0.7-3.1c0.5-0.9,1-1.7,1.9-2.3c0.8-0.7,1.7-1.2,2.9-1.5
		c1.2-0.3,2.3-0.5,3.7-0.5c2,0,3.6,0.2,5,0.8s2.7,1.3,3.9,2.3l-2.1,2.6c-1-0.9-2.1-1.5-3.2-2c-1-0.5-2.3-0.7-3.8-0.7
		c-1,0-1.9,0.1-2.6,0.3c-0.7,0.2-1.3,0.6-1.7,0.9s-0.8,0.8-1,1.4c-0.2,0.5-0.3,1-0.3,1.6s0.1,1.2,0.2,1.6c0.1,0.5,0.5,0.9,1,1.4
		c0.6,0.5,1.2,0.9,2.1,1.4c0.9,0.5,2.1,0.9,3.6,1.5c1.6,0.6,3,1.2,4.1,1.7s2,1.3,2.6,2c0.7,0.7,1.2,1.5,1.4,2.3
		c0.2,0.8,0.5,1.7,0.5,2.9C30.4,120.6,30.2,121.6,29.7,122.5z"/>
	<path d="M46.3,100.9v26.2h-3.2v-26.2h-8.6v-3h20.4v3H46.3z"/>
	<path d="M81.8,118.5c-0.6,1.9-1.4,3.5-2.4,4.8c-1,1.4-2.3,2.4-3.8,3.1c-1.5,0.7-3.1,1.2-5,1.2c-1.9,0-3.5-0.3-5-1.2
		c-1.5-0.7-2.8-1.7-3.8-3.1c-1-1.4-1.9-2.9-2.4-4.8c-0.6-1.9-0.8-3.8-0.8-6s0.3-4.2,0.9-6c0.6-1.9,1.4-3.5,2.4-4.8
		c1-1.4,2.3-2.4,3.8-3.1c1.5-0.7,3.1-1.2,5-1.2c1.9,0,3.5,0.3,5,1.2c1.5,0.7,2.8,1.7,3.8,3.1c1,1.4,1.9,2.9,2.4,4.8s0.9,3.8,0.9,6
		C82.7,114.7,82.4,116.6,81.8,118.5z M78.8,107.5c-0.5-1.5-1-2.8-1.9-3.8s-1.7-1.9-2.8-2.4c-1-0.6-2.3-0.8-3.6-0.8s-2.4,0.2-3.5,0.8
		c-1,0.6-2,1.4-2.8,2.4c-0.8,1-1.4,2.3-1.9,3.8c-0.5,1.5-0.7,3.1-0.7,5c0,1.9,0.2,3.5,0.7,5c0.5,1.5,1,2.8,1.9,3.8
		c0.8,1,1.7,1.9,2.8,2.4s2.3,0.8,3.6,0.8c1.3,0,2.4-0.2,3.5-0.8s2-1.4,2.8-2.4c0.8-1,1.4-2.3,1.9-3.8c0.5-1.5,0.7-3.1,0.7-5
		S79.1,109,78.8,107.5z"/>
	<path d="M107.9,111.7c-1.3,1.4-2.9,2.3-5,2.8l6.4,12.6h-3.7l-6.3-12.4h-7v12.4h-3.2V97.9h11.6c1.3,0,2.4,0.1,3.6,0.5
		c1.2,0.3,2.1,0.8,2.9,1.5c0.8,0.7,1.4,1.5,2,2.6c0.6,1,0.7,2.2,0.7,3.7C109.7,108.4,109.2,110.3,107.9,111.7z M105,102.1
		c-1-0.9-2.6-1.4-4.4-1.4h-8.2v10.9h7.8c2.2,0,3.8-0.5,4.9-1.4c1-0.9,1.5-2.3,1.5-4.1C106.5,104.5,106,103.1,105,102.1z"/>
	<path d="M134.5,127.1l-2.6-7.4h-12.1l-2.6,7.4H114l10.1-29.2h3.6l10.1,29.2H134.5z M127.8,107.1c-0.1-0.5-0.3-1-0.6-1.5
		c-0.2-0.6-0.3-1-0.6-1.6c-0.1-0.5-0.3-1-0.5-1.5c-0.1-0.5-0.2-0.8-0.3-1.2c-0.1,0.3-0.2,0.7-0.3,1.2c-0.1,0.5-0.2,0.9-0.5,1.5
		c-0.1,0.6-0.3,1-0.6,1.6s-0.3,1.2-0.6,1.6l-3.2,9.5h10.1L127.8,107.1z"/>
	<path d="M163.8,120.7c-0.6,1.5-1.3,2.8-2.3,3.8c-0.9,1-2.1,1.7-3.5,2.3c-1.3,0.5-2.8,0.7-4.3,0.7c-1.7,0-3.4-0.3-4.9-1.2
		c-1.5-0.8-2.7-1.9-3.7-3.1c-1-1.3-1.9-2.9-2.4-4.8s-0.8-3.8-0.8-5.9c0-2.2,0.3-4.2,0.9-6s1.4-3.5,2.4-4.8c1-1.4,2.3-2.4,3.8-3.1
		c1.5-0.8,3.1-1.2,4.9-1.2c3.9,0,7.1,1.5,9.3,4.6l-2.6,2c-0.9-1.3-2-2.2-2.9-2.8c-1-0.6-2.3-0.9-3.8-0.9c-1.3,0-2.4,0.3-3.5,0.9
		s-2,1.4-2.7,2.4c-0.7,1-1.4,2.3-1.7,3.8c-0.5,1.5-0.7,3.1-0.7,4.9c0,1.7,0.2,3.4,0.7,4.9c0.5,1.5,1,2.8,1.9,3.8s1.6,1.9,2.8,2.6
		c1,0.6,2.2,0.9,3.5,0.9c2.4,0,4.3-0.7,5.6-2.2c1.3-1.5,2-3.6,2-6.5v-0.2h-5.2v-3h8.5v2.8C164.6,117.4,164.3,119.2,163.8,120.7z"/>
	<path d="M170.7,127.1V97.9h17.6v3H174v9.2h8.3v3H174v11.1H189v3h-18.3V127.1z"/>
</g>
</svg>
