<?xml version="1.0" encoding="utf-8"?>
<!-- Generator: Adobe Illustrator 19.2.0, SVG Export Plug-In . SVG Version: 6.00 Build 0)  -->
<svg version="1.1" id="Layer_1" xmlns="http://www.w3.org/2000/svg" xmlns:xlink="http://www.w3.org/1999/xlink" x="0px" y="0px"
	 viewBox="0 0 448 448" style="enable-background:new 0 0 448 448;" xml:space="preserve">
<style type="text/css">
	.st0{opacity:0.3;fill:none;stroke:#449FDB;enable-background:new    ;}
	.st1{fill:none;stroke:#449FDB;}
	.st2{display:none;}
	.st3{display:inline;}
</style>
<g id="Grid_1_">
	<g id="icomoon-ignore_1_">
		<line class="st0" x1="16" y1="0" x2="16" y2="448"/>
		<line class="st1" x1="32" y1="0" x2="32" y2="448"/>
		<line class="st0" x1="48" y1="0" x2="48" y2="448"/>
		<line class="st1" x1="64" y1="0" x2="64" y2="448"/>
		<line class="st0" x1="80" y1="0" x2="80" y2="448"/>
		<line class="st1" x1="96" y1="0" x2="96" y2="448"/>
		<line class="st0" x1="112" y1="0" x2="112" y2="448"/>
		<line class="st1" x1="128" y1="0" x2="128" y2="448"/>
		<line class="st0" x1="144" y1="0" x2="144" y2="448"/>
		<line class="st1" x1="160" y1="0" x2="160" y2="448"/>
		<line class="st0" x1="176" y1="0" x2="176" y2="448"/>
		<line class="st1" x1="192" y1="0" x2="192" y2="448"/>
		<line class="st0" x1="208" y1="0" x2="208" y2="448"/>
		<line class="st1" x1="224" y1="0" x2="224" y2="448"/>
		<line class="st0" x1="240" y1="0" x2="240" y2="448"/>
		<line class="st1" x1="256" y1="0" x2="256" y2="448"/>
		<line class="st0" x1="272" y1="0" x2="272" y2="448"/>
		<line class="st1" x1="288" y1="0" x2="288" y2="448"/>
		<line class="st0" x1="304" y1="0" x2="304" y2="448"/>
		<line class="st1" x1="320" y1="0" x2="320" y2="448"/>
		<line class="st0" x1="336" y1="0" x2="336" y2="448"/>
		<line class="st1" x1="352" y1="0" x2="352" y2="448"/>
		<line class="st0" x1="368" y1="0" x2="368" y2="448"/>
		<line class="st1" x1="384" y1="0" x2="384" y2="448"/>
		<line class="st0" x1="400" y1="0" x2="400" y2="448"/>
		<line class="st1" x1="416" y1="0" x2="416" y2="448"/>
		<line class="st0" x1="432" y1="0" x2="432" y2="448"/>
		<line class="st0" x1="0" y1="16" x2="448" y2="16"/>
		<line class="st1" x1="0" y1="32" x2="448" y2="32"/>
		<line class="st0" x1="0" y1="48" x2="448" y2="48"/>
		<line class="st1" x1="0" y1="64" x2="448" y2="64"/>
		<line class="st0" x1="0" y1="80" x2="448" y2="80"/>
		<line class="st1" x1="0" y1="96" x2="448" y2="96"/>
		<line class="st0" x1="0" y1="112" x2="448" y2="112"/>
		<line class="st1" x1="0" y1="128" x2="448" y2="128"/>
		<line class="st0" x1="0" y1="144" x2="448" y2="144"/>
		<line class="st1" x1="0" y1="160" x2="448" y2="160"/>
		<line class="st0" x1="0" y1="176" x2="448" y2="176"/>
		<line class="st1" x1="0" y1="192" x2="448" y2="192"/>
		<line class="st0" x1="0" y1="208" x2="448" y2="208"/>
		<line class="st1" x1="0" y1="224" x2="448" y2="224"/>
		<line class="st0" x1="0" y1="240" x2="448" y2="240"/>
		<line class="st1" x1="0" y1="256" x2="448" y2="256"/>
		<line class="st0" x1="0" y1="272" x2="448" y2="272"/>
		<line class="st1" x1="0" y1="288" x2="448" y2="288"/>
		<line class="st0" x1="0" y1="304" x2="448" y2="304"/>
		<line class="st1" x1="0" y1="320" x2="448" y2="320"/>
		<line class="st0" x1="0" y1="336" x2="448" y2="336"/>
		<line class="st1" x1="0" y1="352" x2="448" y2="352"/>
		<line class="st0" x1="0" y1="368" x2="448" y2="368"/>
		<line class="st1" x1="0" y1="384" x2="448" y2="384"/>
		<line class="st0" x1="0" y1="400" x2="448" y2="400"/>
		<line class="st1" x1="0" y1="416" x2="448" y2="416"/>
		<line class="st0" x1="0" y1="432" x2="448" y2="432"/>
	</g>
</g>
<g id="Layer_2" class="st2">
	<g id="Grid" class="st3">
		<g id="icomoon-ignore">
			<line class="st0" x1="16" y1="0" x2="16" y2="448"/>
			<line class="st1" x1="32" y1="0" x2="32" y2="448"/>
			<line class="st0" x1="48" y1="0" x2="48" y2="448"/>
			<line class="st1" x1="64" y1="0" x2="64" y2="448"/>
			<line class="st0" x1="80" y1="0" x2="80" y2="448"/>
			<line class="st1" x1="96" y1="0" x2="96" y2="448"/>
			<line class="st0" x1="112" y1="0" x2="112" y2="448"/>
			<line class="st1" x1="128" y1="0" x2="128" y2="448"/>
			<line class="st0" x1="144" y1="0" x2="144" y2="448"/>
			<line class="st1" x1="160" y1="0" x2="160" y2="448"/>
			<line class="st0" x1="176" y1="0" x2="176" y2="448"/>
			<line class="st1" x1="192" y1="0" x2="192" y2="448"/>
			<line class="st0" x1="208" y1="0" x2="208" y2="448"/>
			<line class="st1" x1="224" y1="0" x2="224" y2="448"/>
			<line class="st0" x1="240" y1="0" x2="240" y2="448"/>
			<line class="st1" x1="256" y1="0" x2="256" y2="448"/>
			<line class="st0" x1="272" y1="0" x2="272" y2="448"/>
			<line class="st1" x1="288" y1="0" x2="288" y2="448"/>
			<line class="st0" x1="304" y1="0" x2="304" y2="448"/>
			<line class="st1" x1="320" y1="0" x2="320" y2="448"/>
			<line class="st0" x1="336" y1="0" x2="336" y2="448"/>
			<line class="st1" x1="352" y1="0" x2="352" y2="448"/>
			<line class="st0" x1="368" y1="0" x2="368" y2="448"/>
			<line class="st1" x1="384" y1="0" x2="384" y2="448"/>
			<line class="st0" x1="400" y1="0" x2="400" y2="448"/>
			<line class="st1" x1="416" y1="0" x2="416" y2="448"/>
			<line class="st0" x1="432" y1="0" x2="432" y2="448"/>
			<line class="st0" x1="0" y1="16" x2="448" y2="16"/>
			<line class="st1" x1="0" y1="32" x2="448" y2="32"/>
			<line class="st0" x1="0" y1="48" x2="448" y2="48"/>
			<line class="st1" x1="0" y1="64" x2="448" y2="64"/>
			<line class="st0" x1="0" y1="80" x2="448" y2="80"/>
			<line class="st1" x1="0" y1="96" x2="448" y2="96"/>
			<line class="st0" x1="0" y1="112" x2="448" y2="112"/>
			<line class="st1" x1="0" y1="128" x2="448" y2="128"/>
			<line class="st0" x1="0" y1="144" x2="448" y2="144"/>
			<line class="st1" x1="0" y1="160" x2="448" y2="160"/>
			<line class="st0" x1="0" y1="176" x2="448" y2="176"/>
			<line class="st1" x1="0" y1="192" x2="448" y2="192"/>
			<line class="st0" x1="0" y1="208" x2="448" y2="208"/>
			<line class="st1" x1="0" y1="224" x2="448" y2="224"/>
			<line class="st0" x1="0" y1="240" x2="448" y2="240"/>
			<line class="st1" x1="0" y1="256" x2="448" y2="256"/>
			<line class="st0" x1="0" y1="272" x2="448" y2="272"/>
			<line class="st1" x1="0" y1="288" x2="448" y2="288"/>
			<line class="st0" x1="0" y1="304" x2="448" y2="304"/>
			<line class="st1" x1="0" y1="320" x2="448" y2="320"/>
			<line class="st0" x1="0" y1="336" x2="448" y2="336"/>
			<line class="st1" x1="0" y1="352" x2="448" y2="352"/>
			<line class="st0" x1="0" y1="368" x2="448" y2="368"/>
			<line class="st1" x1="0" y1="384" x2="448" y2="384"/>
			<line class="st0" x1="0" y1="400" x2="448" y2="400"/>
			<line class="st1" x1="0" y1="416" x2="448" y2="416"/>
			<line class="st0" x1="0" y1="432" x2="448" y2="432"/>
		</g>
	</g>
</g>
<g>
	<path d="M151.8,96c-15.6,0-28.8,5.4-39.7,16.3c-10.9,10.9-16.3,24.1-16.3,39.7s5.4,28.8,16.3,39.7c10.9,10.9,24.1,16.3,39.7,16.3
		s28.8-5.4,39.7-16.3c10.9-10.9,16.3-24.1,16.3-39.7s-5.4-28.8-16.3-39.7C180.5,101.4,167.3,96,151.8,96z"/>
	<path d="M296,96c-15.6,0-28.8,5.4-39.7,16.3C245.5,123.1,240,136.4,240,152c0,15.6,5.4,28.8,16.3,39.7
		c10.9,10.9,24.1,16.3,39.7,16.3s28.8-5.4,39.7-16.3c10.9-10.9,16.3-24.1,16.3-39.7c0-15.6-5.4-28.8-16.3-39.7
		C324.9,101.4,311.6,96,296,96z M324.7,180.5c-7.9,7.9-17.5,11.9-28.6,11.9c-11.1,0-20.7-4-28.6-11.9c-7.9-7.9-11.9-17.5-11.9-28.6
		s4-20.7,11.9-28.6c7.9-7.9,17.5-11.9,28.6-11.9c11.1,0,20.7,4,28.6,11.9c7.9,7.9,11.9,17.5,11.9,28.6S332.7,172.6,324.7,180.5z"/>
	<path d="M296,239.7c-15.6,0-28.8,5.4-39.7,16.3c-10.9,10.9-16.3,24.1-16.3,39.7c0,15.6,5.4,28.8,16.3,39.7
		c10.9,10.9,24.1,16.3,39.7,16.3s28.8-5.4,39.7-16.3c10.9-10.9,16.3-24.1,16.3-39.7c0-15.6-5.4-28.8-16.3-39.7
		C324.9,245.1,311.6,239.7,296,239.7z M324.7,324.3c-7.9,7.9-17.5,11.9-28.6,11.9c-11.1,0-20.7-4-28.6-11.9
		c-7.9-7.9-11.9-17.5-11.9-28.6s4-20.7,11.9-28.6c7.9-7.9,17.5-11.9,28.6-11.9c11.1,0,20.7,4,28.6,11.9c7.9,7.9,11.9,17.5,11.9,28.6
		S332.7,316.4,324.7,324.3z"/>
	<path d="M151.8,239.7c-15.6,0-28.8,5.4-39.7,16.3c-10.9,10.9-16.3,24.1-16.3,39.7c0,15.6,5.4,28.8,16.3,39.7
		c10.9,10.9,24.1,16.3,39.7,16.3c15.6,0,28.8-5.4,39.7-16.3c10.9-10.9,16.3-24.1,16.3-39.7c0-15.6-5.4-28.8-16.3-39.7
		C180.6,245.1,167.4,239.7,151.8,239.7z M180.5,324.3c-7.9,7.9-17.5,11.9-28.6,11.9c-11.1,0-20.7-4-28.6-11.9
		c-7.9-7.9-11.9-17.5-11.9-28.6s4-20.7,11.9-28.6c7.9-7.9,17.5-11.9,28.6-11.9c11.1,0,20.7,4,28.6,11.9c7.9,7.9,11.9,17.5,11.9,28.6
		S188.4,316.4,180.5,324.3z"/>
	<path d="M417.7,111.7c-20-34.3-47.1-61.4-81.4-81.4s-71.7-30-112.3-30c-40.6,0-78,10-112.3,30s-61.4,47.1-81.4,81.4
		c-20,34.3-30,71.7-30,112.3c0,40.6,10,78,30,112.3s47.1,61.4,81.4,81.4s71.7,30,112.3,30c40.6,0,78-10,112.3-30
		c34.3-20,61.4-47.1,81.4-81.4s30-71.7,30-112.3C447.7,183.4,437.7,146,417.7,111.7z M395.5,296.4c-9.9,23-23.2,42.8-39.8,59.4
		c-16.6,16.6-36.4,29.9-59.4,39.8c-23,9.9-47.1,14.9-72.4,14.9c-25.2,0-49.4-5-72.4-14.9c-23-9.9-42.8-23.2-59.4-39.8
		c-16.6-16.6-29.9-36.4-39.8-59.4c-9.9-23-14.9-47.1-14.9-72.4c0-25.2,5-49.4,14.9-72.4c9.9-23,23.2-42.8,39.8-59.4
		c16.6-16.6,36.4-29.9,59.4-39.8c23-9.9,47.1-14.9,72.4-14.9c25.2,0,49.4,4.9,72.4,14.9c23,9.9,42.8,23.2,59.4,39.8
		c16.6,16.6,29.9,36.4,39.8,59.4c9.9,23,14.9,47.1,14.9,72.4C410.4,249.2,405.5,273.4,395.5,296.4z"/>
</g>
</svg>
