<?xml version="1.0" encoding="utf-8"?>
<!-- Generator: Adobe Illustrator 19.2.0, SVG Export Plug-In . SVG Version: 6.00 Build 0)  -->
<svg version="1.1"
	 id="svg4242" xmlns:cc="http://creativecommons.org/ns#" xmlns:dc="http://purl.org/dc/elements/1.1/" xmlns:rdf="http://www.w3.org/1999/02/22-rdf-syntax-ns#"
	 xmlns="http://www.w3.org/2000/svg" xmlns:xlink="http://www.w3.org/1999/xlink" x="0px" y="0px" viewBox="0 0 200 199.7"
	 style="enable-background:new 0 0 200 199.7;" xml:space="preserve">
<style type="text/css">
	.st0{fill:#717073;}
</style>
<g>
	<path class="st0" d="M87.6,111.3l-7.7-21.4c-0.1-0.3-0.2-0.7-0.2-1c0-0.9,0.8-1.8,1.9-1.8c1,0,1.6,0.6,1.9,1.6l6.4,18.4l6.4-18.5
		c0.3-0.9,0.9-1.5,1.9-1.5h0.2c1,0,1.7,0.6,2,1.5l6.4,18.5l6.5-18.5c0.2-0.8,0.8-1.5,1.8-1.5c1.1,0,1.9,0.8,1.9,1.8
		c0,0.3-0.1,0.7-0.2,1l-7.7,21.5c-0.4,1.1-1.2,1.7-2.1,1.7h-0.1c-1,0-1.7-0.6-2.1-1.7l-6.3-18.2l-6.4,18.2c-0.3,1.1-1.1,1.7-2.1,1.7
		h-0.1C88.8,113,88,112.4,87.6,111.3"/>
	<path class="st0" d="M143.7,88.9c0-1,0.8-1.9,1.9-1.9c1.1,0,1.9,0.8,1.9,1.9v4.3c1.9-4.2,6-6.2,8.7-6.2c1.1,0,1.9,0.8,1.9,1.9
		c0,1-0.7,1.8-1.7,1.9c-4.9,0.6-8.9,4.3-8.9,11.6v8.6c0,1-0.8,1.9-1.9,1.9c-1.1,0-1.9-0.8-1.9-1.9L143.7,88.9"/>
	<path class="st0" d="M170.2,113.2c-6.8,0-12.4-5.3-12.4-13.1V100c0-7.2,5-13.1,11.9-13.1c7.4,0,11.5,6.1,11.5,12.7
		c0,1-0.8,1.8-1.7,1.8h-18c0.5,5.4,4.3,8.5,8.7,8.5c3.1,0,5.3-1.2,7.2-2.9c0.3-0.2,0.6-0.4,1.1-0.4c0.9,0,1.6,0.7,1.6,1.6
		c0,0.4-0.2,0.9-0.6,1.2C177.2,111.7,174.4,113.2,170.2,113.2 M177.5,98.7c-0.4-4.6-3-8.5-7.9-8.5c-4.3,0-7.6,3.6-8.1,8.5H177.5z"/>
	<path class="st0" d="M116.9,105.3L116.9,105.3c0-5.4,4.4-8.3,10.8-8.3c3.2,0,5.5,0.4,7.8,1.1v-0.9c0-4.5-2.8-6.9-7.5-6.9
		c-2.5,0-4,0.3-5.9,1.2c-0.2,0.1-0.5,0.1-0.7,0.1c-0.9,0-1.7-0.7-1.7-1.6c0-0.8,0.3-1.3,1-1.6c2.5-1.1,4.4-1.4,7.6-1.4
		c3.6,0,6.3,0.9,8.2,2.8c1.7,1.7,2.6,4.2,2.6,7.4v14c0,1.1-0.8,1.9-1.8,1.9c-1.1,0-1.8-0.8-1.8-1.8v-2.4c-1.8,2.3-4.7,4.4-9.1,4.4
		C121.6,113.2,116.9,110.5,116.9,105.3 M135.5,103.4v-2.4c-1.9-0.5-4.4-1.1-7.4-1.1c-4.7,0-7.4,2.1-7.4,5.2v0.1c0,3.2,2.9,5,6.4,5
		C131.7,110.2,135.5,107.4,135.5,103.4"/>
	<path class="st0" d="M19.1,88.6c-0.8-1.8-2.9-2.6-4.8-1.8c-1.9,0.9-2.6,3-1.8,4.8l8,17.4c1.3,2.7,2.6,4.2,5.1,4.2
		c2.7,0,3.8-1.6,5.1-4.2c0,0,7-15.2,7.1-15.4c0.1-0.2,0.3-0.7,1-0.7c0.6,0,1.1,0.5,1.1,1.1V109c0,2.3,1.3,4.2,3.7,4.2
		c2.4,0,3.8-1.9,3.8-4.2V96.8c0-2.4,1.7-3.9,4-3.9c2.3,0,3.8,1.6,3.8,3.9V109c0,2.3,1.3,4.2,3.7,4.2c2.4,0,3.8-1.9,3.8-4.2V96.8
		c0-2.4,1.7-3.9,4-3.9c2.3,0,3.8,1.6,3.8,3.9V109c0,2.3,1.3,4.2,3.7,4.2c2.4,0,3.8-1.9,3.8-4.2V95.2c0-5.1-4.1-8.7-9-8.7
		c-4.9,0-8,3.4-8,3.4c-1.6-2.1-3.9-3.4-7.7-3.4c-4,0-7.6,3.4-7.6,3.4c-1.6-2.1-4.4-3.4-6.8-3.4c-3.6,0-6.4,1.6-8.2,5.5l-5.1,12.1
		L19.1,88.6"/>
	<path class="st0" d="M181.5,90.1L181.5,90.1c0-1.7,1.4-3.2,3.1-3.2c1.8,0,3.1,1.4,3.1,3.1v0c0,1.7-1.4,3.2-3.1,3.2
		C182.9,93.2,181.5,91.8,181.5,90.1 M187.2,90.1L187.2,90.1c0-1.4-1.1-2.6-2.5-2.6c-1.4,0-2.5,1.2-2.5,2.6v0c0,1.4,1.1,2.6,2.5,2.6
		C186.1,92.7,187.2,91.5,187.2,90.1"/>
	<path class="st0" d="M183.5,88.9c0-0.2,0.1-0.3,0.3-0.3h1c0.4,0,0.7,0.1,0.9,0.3c0.2,0.2,0.3,0.4,0.3,0.7v0c0,0.5-0.2,0.8-0.6,0.9
		l0.5,0.6c0.1,0.1,0.1,0.2,0.1,0.3c0,0.2-0.2,0.3-0.3,0.3c-0.1,0-0.2-0.1-0.3-0.2l-0.6-0.8h-0.5v0.7c0,0.2-0.1,0.3-0.3,0.3
		c-0.2,0-0.3-0.1-0.3-0.3L183.5,88.9L183.5,88.9z M184.8,90c0.3,0,0.5-0.2,0.5-0.4v0c0-0.3-0.2-0.4-0.5-0.4h-0.7V90L184.8,90
		L184.8,90z"/>
</g>
</svg>
