<?xml version="1.0" encoding="utf-8"?>
<!-- Generator: Adobe Illustrator 23.0.4, SVG Export Plug-In . SVG Version: 6.00 Build 0)  -->
<svg version="1.1" id="upstream" xmlns="http://www.w3.org/2000/svg" xmlns:xlink="http://www.w3.org/1999/xlink" x="0px" y="0px"
	 viewBox="0 0 76.8 10" style="enable-background:new 0 0 76.8 10;" xml:space="preserve">
<style type="text/css">
	.st0{fill:#FFFFFF;}
</style>
<g>
	<path class="st0" d="M3.6,4.3v3.2H2.5V2.8H4L5.1,5l1.1-2.3h1.5v4.7H6.6V4.3L5.1,7.2L3.6,4.3z"/>
	<path class="st0" d="M8.4,6.5c0-0.6,0.5-1,1.4-1c0.3,0,0.5,0,0.8,0.2V5.4c0-0.3-0.2-0.5-0.7-0.5c-0.3,0-0.6,0.1-1,0.2L8.5,4.3
		C9.1,4.1,9.6,4,10.1,4c1,0,1.5,0.5,1.5,1.3v2.2h-1.1V7.2c-0.3,0.3-0.6,0.4-1,0.4C8.9,7.6,8.4,7.1,8.4,6.5z M10,6.8
		c0.2,0,0.4-0.1,0.6-0.2V6.2c-0.2,0-0.4-0.1-0.6-0.1c-0.4,0-0.6,0.1-0.6,0.3S9.6,6.8,10,6.8z"/>
	<path class="st0" d="M12.5,4h1.1v0.6C13.9,4.2,14.2,4,14.7,4c0.7,0,1.2,0.5,1.2,1.2v2.4h-1.1v-2c0-0.4-0.2-0.7-0.6-0.7
		c-0.2,0-0.4,0.1-0.6,0.3v2.4h-1.1V4z"/>
	<path class="st0" d="M16.5,6.5c0-0.6,0.5-1,1.4-1c0.3,0,0.5,0,0.8,0.2V5.4c0-0.3-0.2-0.5-0.7-0.5c-0.3,0-0.6,0.1-1,0.2l-0.4-0.8
		C17.2,4.1,17.7,4,18.3,4c1,0,1.5,0.5,1.5,1.3v2.2h-1.1V7.2c-0.3,0.3-0.6,0.4-1,0.4C17,7.6,16.5,7.1,16.5,6.5z M18.1,6.8
		c0.2,0,0.4-0.1,0.6-0.2V6.2c-0.2,0-0.4-0.1-0.6-0.1c-0.4,0-0.6,0.1-0.6,0.3S17.7,6.8,18.1,6.8z"/>
	<path class="st0" d="M20.4,5.7c0-1,0.7-1.7,1.6-1.7c0.4,0,0.7,0.2,0.9,0.4V4h1.1v3.5c0,0.9-0.7,1.5-1.8,1.5c-0.5,0-1-0.1-1.5-0.3
		l0.3-0.8c0.4,0.2,0.7,0.3,1.1,0.3C22.7,8.2,23,8,23,7.5V7c-0.2,0.3-0.6,0.5-1,0.5C21.1,7.5,20.4,6.7,20.4,5.7z M22.4,6.6
		c0.3,0,0.5-0.1,0.7-0.3V5.2c-0.2-0.2-0.4-0.3-0.7-0.3c-0.5,0-0.8,0.4-0.8,0.9S21.9,6.6,22.4,6.6z"/>
	<path class="st0" d="M26.6,7.6c-1,0-1.8-0.8-1.8-1.8c0-1,0.8-1.8,1.8-1.8c1,0,1.7,0.8,1.7,1.9V6h-2.4c0.1,0.4,0.4,0.7,0.8,0.7
		c0.3,0,0.5-0.1,0.7-0.3L28.1,7C27.7,7.4,27.2,7.6,26.6,7.6z M25.9,5.4h1.4c-0.1-0.4-0.4-0.6-0.7-0.6C26.2,4.8,26,5,25.9,5.4z"/>
	<path class="st0" d="M29,2.8h1.2v4.7H29V2.8z"/>
	<path class="st0" d="M35.1,6.8l0.4,0.5l-0.8,0.6l-0.4-0.5c-0.3,0.1-0.6,0.2-0.9,0.2c-1.4,0-2.5-1.1-2.5-2.4c0-1.4,1.1-2.4,2.5-2.4
		c1.4,0,2.4,1.1,2.4,2.4C35.8,5.8,35.6,6.4,35.1,6.8z M34.4,5.9c0.1-0.2,0.2-0.5,0.2-0.8c0-0.8-0.5-1.4-1.2-1.4
		c-0.7,0-1.2,0.6-1.2,1.4s0.5,1.4,1.2,1.4c0.1,0,0.1,0,0.2,0L33.2,6L34,5.5L34.4,5.9z"/>
	<path class="st0" d="M38.2,6.2c0.6,0.5,1.1,0.7,1.6,0.7c0.6,0,1.1-0.3,1.1-0.8c0-0.4-0.2-0.6-0.9-0.7l-0.9-0.1
		c-0.8-0.1-1.2-0.6-1.2-1.2c0-0.9,0.7-1.4,1.7-1.4c0.7,0,1.4,0.2,1.9,0.6l-0.4,0.6c-0.5-0.4-1-0.5-1.5-0.5c-0.6,0-0.9,0.3-0.9,0.7
		c0,0.3,0.2,0.5,0.7,0.6l0.8,0.1c1,0.2,1.4,0.6,1.4,1.3c0,0.9-0.8,1.5-1.9,1.5c-0.7,0-1.4-0.3-2-0.8L38.2,6.2z"/>
	<path class="st0" d="M44,7.6c-1,0-1.7-0.8-1.7-1.8c0-1,0.7-1.8,1.7-1.8c0.9,0,1.6,0.7,1.6,1.7V6H43c0.1,0.5,0.5,0.9,1,0.9
		c0.3,0,0.6-0.1,0.8-0.3l0.5,0.5C44.9,7.4,44.5,7.6,44,7.6z M43,5.5h1.8c-0.1-0.5-0.4-0.8-0.9-0.8S43.1,5,43,5.5z"/>
	<path class="st0" d="M47.1,7.5h-0.8V2.7l0.8-0.1V7.5z"/>
	<path class="st0" d="M48.5,4.1V3.5c0-0.7,0.4-1.1,1.2-1.1c0.2,0,0.4,0,0.5,0.1v0.7C50,3,49.9,3,49.7,3c-0.4,0-0.5,0.2-0.5,0.5v0.6
		h0.9v0.6h-0.9v2.8h-0.8V4.7h-0.7V4.1H48.5z"/>
	<path class="st0" d="M52.4,6.2C53,6.7,53.5,6.9,54,6.9c0.6,0,1.1-0.3,1.1-0.8c0-0.4-0.2-0.6-0.9-0.7l-0.9-0.1
		c-0.8-0.1-1.2-0.6-1.2-1.2c0-0.9,0.7-1.4,1.7-1.4c0.7,0,1.4,0.2,1.9,0.6l-0.4,0.6c-0.5-0.4-1-0.5-1.5-0.5c-0.6,0-0.9,0.3-0.9,0.7
		c0,0.3,0.2,0.5,0.7,0.6l0.8,0.1c1,0.2,1.4,0.6,1.4,1.3c0,0.9-0.8,1.5-1.9,1.5c-0.7,0-1.4-0.3-2-0.8L52.4,6.2z"/>
	<path class="st0" d="M58.3,7.6c-1,0-1.7-0.8-1.7-1.8c0-1,0.7-1.8,1.7-1.8c0.9,0,1.6,0.7,1.6,1.7V6h-2.5c0.1,0.5,0.5,0.9,1,0.9
		c0.3,0,0.6-0.1,0.8-0.3l0.5,0.5C59.2,7.4,58.8,7.6,58.3,7.6z M57.3,5.5h1.8C59,5,58.6,4.7,58.2,4.7S57.4,5,57.3,5.5z"/>
	<path class="st0" d="M60.6,4.1h0.8v0.7C61.5,4.3,61.8,4,62.3,4c0.1,0,0.2,0,0.3,0.1v0.7c-0.1-0.1-0.3-0.1-0.4-0.1
		c-0.4,0-0.7,0.2-0.8,0.6v2.2h-0.8V4.1z"/>
	<path class="st0" d="M62.9,4.1h0.8l0.9,2.5l0.9-2.5h0.8l-1.4,3.4h-0.7L62.9,4.1z"/>
	<path class="st0" d="M66.9,2.9c0-0.3,0.2-0.5,0.5-0.5c0.3,0,0.5,0.2,0.5,0.5c0,0.3-0.2,0.5-0.5,0.5C67.1,3.4,66.9,3.2,66.9,2.9z
		 M67.8,7.5H67V4.1h0.8V7.5z"/>
	<path class="st0" d="M71.1,6.5L71.6,7c-0.3,0.4-0.8,0.6-1.3,0.6c-1,0-1.7-0.8-1.7-1.8c0-1,0.7-1.7,1.7-1.7c0.5,0,1,0.2,1.4,0.6
		l-0.5,0.5c-0.2-0.3-0.5-0.4-0.9-0.4c-0.5,0-1,0.5-1,1.1c0,0.6,0.4,1.1,1,1.1C70.6,6.9,70.9,6.8,71.1,6.5z"/>
	<path class="st0" d="M73.7,7.6c-1,0-1.7-0.8-1.7-1.8c0-1,0.7-1.8,1.7-1.8c0.9,0,1.6,0.7,1.6,1.7V6h-2.5c0.1,0.5,0.5,0.9,1,0.9
		c0.3,0,0.6-0.1,0.8-0.3l0.5,0.5C74.6,7.4,74.2,7.6,73.7,7.6z M72.7,5.5h1.8c-0.1-0.5-0.4-0.8-0.9-0.8S72.8,5,72.7,5.5z"/>
</g>
</svg>
